<?xml version="1.0" encoding="UTF-8" standalone="no"?>
<!-- Created with Inkscape (http://www.inkscape.org/) -->

<svg
   xmlns:dc="http://purl.org/dc/elements/1.1/"
   xmlns:cc="http://creativecommons.org/ns#"
   xmlns:rdf="http://www.w3.org/1999/02/22-rdf-syntax-ns#"
   xmlns:svg="http://www.w3.org/2000/svg"
   xmlns="http://www.w3.org/2000/svg"
   xmlns:xlink="http://www.w3.org/1999/xlink"
   xmlns:sodipodi="http://sodipodi.sourceforge.net/DTD/sodipodi-0.dtd"
   xmlns:inkscape="http://www.inkscape.org/namespaces/inkscape"
   width="64"
   height="64"
   id="svg5453"
   version="1.1"
   inkscape:version="0.91 r13725"
   sodipodi:docname="centos.svg"
   inkscape:export-filename="/home/andreas/Owncloud/kde.org/cooperateDesign/grub/Breeze/icons/bodhi.png"
   inkscape:export-xdpi="90"
   inkscape:export-ydpi="90">
  <defs
     id="defs5455">
    <linearGradient
       id="linearGradient4348">
      <stop
         id="stop4350"
         offset="0"
         style="stop-color:#ffffff;stop-opacity:0.42662117;" />
      <stop
         id="stop4352"
         offset="1"
         style="stop-color:#ffffff;stop-opacity:0;" />
    </linearGradient>
    <filter
       id="filter3223"
       inkscape:collect="always">
      <feGaussianBlur
         id="feGaussianBlur3225"
         stdDeviation="2.5126563"
         inkscape:collect="always" />
    </filter>
    <radialGradient
       r="117.84375"
       fy="124.68383"
       fx="125.12608"
       cy="124.68383"
       cx="125.12608"
       gradientTransform="matrix(0.7091967,0.00524766,-0.00317296,0.4288265,36.782696,70.559581)"
       gradientUnits="userSpaceOnUse"
       id="radialGradient4394"
       xlink:href="#linearGradient4348"
       inkscape:collect="always" />
    <linearGradient
       y2="159.13304"
       x2="91.320808"
       y1="97.233208"
       x1="19.91527"
       gradientUnits="userSpaceOnUse"
       id="linearGradient4479"
       xlink:href="#linearGradient4348"
       inkscape:collect="always" />
    <linearGradient
       y2="109.30125"
       x2="109.71287"
       y1="39.28125"
       x1="39.53125"
       gradientUnits="userSpaceOnUse"
       id="linearGradient4483"
       xlink:href="#linearGradient4348"
       inkscape:collect="always" />
    <linearGradient
       y2="93.06443"
       x2="154.29752"
       y1="21.437487"
       x1="91.292969"
       gradientUnits="userSpaceOnUse"
       id="linearGradient4487"
       xlink:href="#linearGradient4348"
       inkscape:collect="always" />
    <linearGradient
       y2="113"
       x2="204.4211"
       y1="42.870628"
       x1="141.94803"
       gradientUnits="userSpaceOnUse"
       id="linearGradient4491"
       xlink:href="#linearGradient4348"
       inkscape:collect="always" />
    <linearGradient
       y2="157.81766"
       x2="230.11945"
       y1="93.264984"
       x1="157.80753"
       gradientUnits="userSpaceOnUse"
       id="linearGradient4495"
       xlink:href="#linearGradient4348"
       inkscape:collect="always" />
    <linearGradient
       y2="211.46875"
       x2="209.72679"
       y1="137.53125"
       x1="137.96875"
       gradientUnits="userSpaceOnUse"
       id="linearGradient4499"
       xlink:href="#linearGradient4348"
       inkscape:collect="always" />
    <linearGradient
       y2="228.45026"
       x2="154.89615"
       y1="156.82332"
       x1="88.662895"
       gradientUnits="userSpaceOnUse"
       id="linearGradient4503"
       xlink:href="#linearGradient4348"
       inkscape:collect="always" />
    <linearGradient
       y2="211.46875"
       x2="113.46875"
       y1="137.53125"
       x1="39.53125"
       gradientUnits="userSpaceOnUse"
       id="linearGradient4507"
       xlink:href="#linearGradient4348"
       inkscape:collect="always" />
    <filter
       id="filter6465"
       inkscape:collect="always">
      <feGaussianBlur
         id="feGaussianBlur6467"
         stdDeviation="2.4728125"
         inkscape:collect="always" />
    </filter>
  </defs>
  <sodipodi:namedview
     id="base"
     pagecolor="#ffffff"
     bordercolor="#666666"
     borderopacity="1.0"
     inkscape:pageopacity="0"
     inkscape:pageshadow="2"
     inkscape:zoom="10.30929"
     inkscape:cx="18.209581"
     inkscape:cy="24.903567"
     inkscape:document-units="px"
     inkscape:current-layer="layer1"
     showgrid="true"
     fit-margin-top="0"
     fit-margin-left="0"
     fit-margin-right="0"
     fit-margin-bottom="0"
     inkscape:window-width="1920"
     inkscape:window-height="1011"
     inkscape:window-x="0"
     inkscape:window-y="0"
     inkscape:window-maximized="1"
     inkscape:showpageshadow="false"
     borderlayer="true"
     inkscape:snap-bbox="true"
     inkscape:snap-global="true">
    <sodipodi:guide
       position="6.0000117,57.999996"
       orientation="51.999969,0"
       id="guide4097" />
    <sodipodi:guide
       position="6.0000117,6.0000264"
       orientation="0,52"
       id="guide4099" />
    <sodipodi:guide
       position="58.000012,6.0000264"
       orientation="-51.999969,0"
       id="guide4101" />
    <sodipodi:guide
       position="58.000012,57.999996"
       orientation="0,-52"
       id="guide4103" />
    <sodipodi:guide
       position="3.0000117,60.999996"
       orientation="57.999969,0"
       id="guide4105" />
    <sodipodi:guide
       position="3.0000117,3.0000264"
       orientation="0,58"
       id="guide4107" />
    <sodipodi:guide
       position="61.000012,3.0000264"
       orientation="-57.999969,0"
       id="guide4109" />
    <sodipodi:guide
       position="61.000012,60.999996"
       orientation="0,-58"
       id="guide4111" />
    <inkscape:grid
       type="xygrid"
       id="grid4115" />
  </sodipodi:namedview>
  <metadata
     id="metadata5458">
    <rdf:RDF>
      <cc:Work
         rdf:about="">
        <dc:format>image/svg+xml</dc:format>
        <dc:type
           rdf:resource="http://purl.org/dc/dcmitype/StillImage" />
        <dc:title></dc:title>
      </cc:Work>
    </rdf:RDF>
  </metadata>
  <g
     inkscape:label="Capa 1"
     inkscape:groupmode="layer"
     id="layer1"
     transform="translate(-384.57143,-483.798)">
    <g
       id="g4554"
       transform="matrix(0.23248567,0,0,0.23248567,387.16387,486.39022)">
      <g
         style="display:inline"
         inkscape:label="shadow"
         id="layer2">
        <path
           transform="matrix(0.9841415,0,0,0.9841415,0.02947491,0.02955203)"
           id="rect2183"
           d="M 128.50025,2.87525 127.0315,4.344 94.62525,36.75025 l -55.53125,0 -2.09375,0 0,2.09375 0,55.5 -32.65625,32.6875 -1.5,1.46875 1.5,1.46875 32.65625,32.65625 0,55.21875 0,2.0625 2.09375,0 55.03125,0 32.71875,32.71875 1.46875,1.46875 1.46875,-1.46875 32.75,-32.71875 55.78125,0 2.09375,0 0,-2.0625 0,-55.625 32.25,-32.25 1.5,-1.46875 -1.5,-1.46875 -32.25,-32.25 0,-56.1875 0,-2.09375 -2.09375,0 -56.1875,0 L 129.969,4.344 128.50025,2.87525 Z m 8.53125,109.34375 0,5.5625 0,2.09375 2.09375,0 5.75,0 -7.15625,7.15625 -1.46875,1.46875 1.46875,1.46875 6.5625,6.5625 -5.15625,0 -2.09375,0 0,2.09375 0,6.6875 -7.25,-7.25 -1.46875,-1.46875 -1.46875,1.46875 -6.46875,6.46875 0,-5.90625 0,-2.09375 -2.09375,0 -5.5625,0 6.46875,-6.46875 1.46875,-1.46875 -1.46875,-1.5 -7.21875,-7.21875 6.1875,0 2.09375,0 0,-2.09375 0,-5.28125 6.78125,6.78125 1.46875,1.46875 1.46875,-1.46875 7.0625,-7.0625 z"
           style="fill:#000000;fill-opacity:0.47058824;stroke:none;stroke-width:1.00005305;stroke-miterlimit:4;stroke-opacity:1;filter:url(#filter3223)"
           inkscape:connector-curvature="0" />
      </g>
      <g
         style="display:inline"
         id="layer1-4"
         inkscape:label="logo">
        <rect
           transform="matrix(-0.7071233,-0.7070903,0.7071233,-0.7070903,0,0)"
           y="7.3892245"
           x="-170.03841"
           height="77.935524"
           width="77.945801"
           id="rect2072"
           style="display:inline;fill:#efa724;fill-opacity:1;stroke:none;stroke-width:1.00005233;stroke-miterlimit:4;stroke-opacity:1" />
        <rect
           transform="matrix(-0.7071253,-0.7070883,0.7071253,-0.7070883,0,0)"
           y="-85.435028"
           x="-170.04204"
           height="77.935936"
           width="77.946228"
           id="rect2074"
           style="display:inline;fill:#932279;fill-opacity:1;stroke:none;stroke-width:1.00005376;stroke-miterlimit:4;stroke-opacity:1" />
        <path
           id="rect4397"
           d="M 78.78125,59.90625 C 94.333333,75.458333 109.88542,91.010417 125.4375,106.5625 140.98958,91.010417 156.54167,75.458333 172.09375,59.90625 156.54167,44.354167 140.98958,28.802083 125.4375,13.25 109.88542,28.802083 94.333333,44.354167 78.78125,59.90625 Z"
           style="display:inline;fill:url(#linearGradient4487);fill-opacity:1;stroke:none;stroke-width:1.00005233;stroke-miterlimit:4;stroke-opacity:1"
           inkscape:connector-curvature="0" />
        <path
           id="rect4399"
           d="M 13.15625,125.53125 C 28.708333,141.08333 44.260417,156.63542 59.8125,172.1875 75.364583,156.63542 90.916667,141.08333 106.46875,125.53125 90.916667,109.97917 75.364583,94.427083 59.8125,78.875 44.260417,94.427083 28.708333,109.97917 13.15625,125.53125 Z"
           style="display:inline;fill:url(#linearGradient4479);fill-opacity:1;stroke:none;stroke-width:1.00005376;stroke-miterlimit:4;stroke-opacity:1"
           inkscape:connector-curvature="0" />
        <rect
           y="37.279224"
           x="37.527466"
           height="77.72776"
           width="77.737572"
           id="rect2076"
           style="display:inline;fill:#9ccd2a;fill-opacity:1;stroke:none;stroke-width:1.00000048;stroke-miterlimit:4;stroke-opacity:1" />
        <rect
           transform="matrix(-0.7071298,-0.7070838,0.7071298,-0.7070838,0,0)"
           y="-85.540749"
           x="-262.76257"
           height="77.731613"
           width="77.741867"
           id="rect2078"
           style="display:inline;fill:#9ccd2a;fill-opacity:1;stroke:none;stroke-width:1.00005591;stroke-miterlimit:4;stroke-opacity:1" />
        <path
           id="rect4403"
           d="m 78.8125,191.3125 c 15.5,15.5 31,31 46.5,46.5 15.5,-15.5 31,-31 46.5,-46.5 -15.5,-15.5 -31,-31 -46.5,-46.5 -15.5,15.5 -31,31 -46.5,46.5 z"
           style="display:inline;fill:url(#linearGradient4503);fill-opacity:1;stroke:none;stroke-width:1.00005591;stroke-miterlimit:4;stroke-opacity:1"
           inkscape:connector-curvature="0" />
        <rect
           y="135.52953"
           x="37.527405"
           height="77.932655"
           width="77.942711"
           id="rect2080"
           style="display:inline;fill:#262577;fill-opacity:1;stroke:none;stroke-width:1;stroke-miterlimit:4;stroke-opacity:1" />
        <rect
           transform="matrix(-0.7071253,-0.7070883,0.7071253,-0.7070883,0,0)"
           y="7.3860688"
           x="-262.86301"
           height="77.93573"
           width="77.946167"
           id="rect2082"
           style="display:inline;fill:#262577;fill-opacity:1;stroke:none;stroke-width:1.00005233;stroke-miterlimit:4;stroke-opacity:1" />
        <path
           id="rect4407"
           d="m 144.40625,125.53125 c 15.5625,15.5625 31.125,31.125 46.6875,46.6875 C 206.64583,156.66667 222.19792,141.11458 237.75,125.5625 222.19792,110 206.64583,94.4375 191.09375,78.875 c -15.5625,15.552083 -31.125,31.10417 -46.6875,46.65625 z"
           style="display:inline;fill:url(#linearGradient4495);fill-opacity:1;stroke:none;stroke-width:1.00005233;stroke-miterlimit:4;stroke-opacity:1"
           inkscape:connector-curvature="0" />
        <rect
           y="37.074409"
           x="135.98146"
           height="77.932808"
           width="77.942741"
           id="rect2084"
           style="display:inline;fill:#932279;fill-opacity:1;stroke:none;stroke-width:1.00000048;stroke-miterlimit:4;stroke-opacity:1" />
        <rect
           y="135.52928"
           x="135.98146"
           height="77.932816"
           width="77.942711"
           id="rect2086"
           style="display:inline;fill:#efa724;fill-opacity:1;stroke:none;stroke-width:1;stroke-miterlimit:4;stroke-opacity:1" />
        <path
           id="rect4401"
           d="m 43.53125,109 c 21.90625,0 43.8125,0 65.71875,0 0,-21.90625 0,-43.8125 0,-65.71875 -21.90625,0 -43.8125,0 -65.71875,0 0,21.90625 0,43.8125 0,65.71875 z"
           style="display:inline;fill:url(#linearGradient4483);fill-opacity:1;stroke:none;stroke-width:1.00000048;stroke-miterlimit:4;stroke-opacity:1"
           inkscape:connector-curvature="0" />
        <path
           id="rect4405"
           d="m 43.53125,207.46875 c 21.979167,0 43.958333,0 65.9375,0 0,-21.97917 0,-43.95833 0,-65.9375 -21.979167,0 -43.958333,0 -65.9375,0 0,21.97917 0,43.95833 0,65.9375 z"
           style="display:inline;fill:url(#linearGradient4507);fill-opacity:1;stroke:none;stroke-width:1;stroke-miterlimit:4;stroke-opacity:1"
           inkscape:connector-curvature="0" />
        <path
           id="rect4411"
           d="m 141.96875,207.46875 c 21.98958,0 43.97917,0 65.96875,0 0,-21.97917 0,-43.95833 0,-65.9375 -21.98958,0 -43.97917,0 -65.96875,0 0,21.97917 0,43.95833 0,65.9375 z"
           style="display:inline;fill:url(#linearGradient4499);fill-opacity:1;stroke:none;stroke-width:1;stroke-miterlimit:4;stroke-opacity:1"
           inkscape:connector-curvature="0" />
        <path
           id="rect4409"
           d="m 141.96875,109 c 21.98958,0 43.97917,0 65.96875,0 0,-21.979167 0,-43.958333 0,-65.9375 -21.98958,0 -43.97917,0 -65.96875,0 0,21.979167 0,43.958333 0,65.9375 z"
           style="display:inline;fill:url(#linearGradient4491);fill-opacity:1;stroke:none;stroke-width:1.00000048;stroke-miterlimit:4;stroke-opacity:1"
           inkscape:connector-curvature="0" />
      </g>
      <g
         style="display:inline"
         inkscape:label="highlight"
         id="layer3">
        <path
           id="rect4282"
           d="m 107.46875,31.3125 c 4.3665,0.157774 11.85588,-1.81187 13.90625,2.90625 0.25624,22.930123 -0.50837,46.160598 0.375,68.90625 1.43683,3.52693 5.77964,3.54768 7.40625,0.15625 1.91857,-6.126734 0.12836,-13.477469 0.75,-20.03125 0,-17.385417 0,-34.770833 0,-52.15625 4.461,-0.493484 8.93733,0.01798 13.40625,0 -5.9375,-5.9375 -11.875,-11.875 -17.8125,-17.8125 -6.01042,6.010417 -12.02083,12.020833 -18.03125,18.03125 z m 36.09375,11.40625 c -3.85165,0.06288 -0.39622,6.129103 -1.5625,8.34375 0,12.96875 0,25.9375 0,38.90625 10.01042,-10.010417 20.02083,-20.020833 30.03125,-30.03125 -5.89913,-5.415775 -10.88874,-12.483821 -17.59375,-16.65625 -3.63947,0.459357 -7.2406,-0.712511 -10.875,-0.5625 z M 184.65625,55.375 c 4.72005,1.929001 3.03883,7.867838 -0.65625,9.84375 -14.28126,13.625152 -28.09426,28.10847 -42.125,42.03125 -0.70377,3.71221 3.9296,0.19842 5.09375,-0.8125 14.28238,-15.187871 29.49717,-29.664348 44.15625,-44.5625 5.58447,5.550913 11.15323,11.117583 16.71875,16.6875 0,-11.833333 0,-23.666667 0,-35.5 -11.84375,0 -23.6875,0 -35.53125,0 4.11458,4.104167 8.22917,8.208333 12.34375,12.3125 z M 99.09375,43.15625 c -7.375441,0.09778 -10.51131,8.750277 -16.001208,12.532458 -8.357368,4.45956 1.67689,8.91912 5.006096,13.37868 7.060871,7.060871 14.121742,14.121741 21.182612,21.182612 -0.16831,-15.487937 0.33554,-31.648036 -0.25,-46.71875 -3.3175,0.06954 -6.62304,-0.50223 -9.9375,-0.375 z M 43.5625,78.1875 c 5.424299,-5.419479 10.838773,-10.849044 16.21875,-16.3125 15.948766,15.713028 31.509663,32.26017 47.8125,47.34375 3.90048,0.38636 -0.49408,-5.05689 -1.84375,-5.9375 C 90.701376,89.370948 76.579865,74.195047 61.8125,59.875 67.385515,54.406729 72.877743,48.856877 78.40625,43.34375 c -11.614583,0 -23.229167,0 -34.84375,0 0,11.614583 0,23.229167 0,34.84375 z m 117.59375,30.71875 c 15.43594,-0.12656 31.37708,0.25208 46.5,-0.1875 -0.003,-6.19453 2.40231,-13.986358 -4.44532,-17.750743 -4.26378,-3.206913 -8.53071,-10.545788 -12.79267,-11.354282 -9.754,9.764175 -19.50801,19.52835 -29.26201,29.292525 z M 43.71875,95.0625 c 0.831257,4.515897 -1.756697,9.70207 0.3125,13.84375 15.21875,0 30.4375,0 45.65625,0 C 79.71875,98.9375 69.75,88.96875 59.78125,79 54.427083,84.354167 49.072917,89.708333 43.71875,95.0625 Z M 13.28125,125.5 c 6.0625,6.0625 12.125,12.125 18.1875,18.1875 1.397148,-4.68619 -3.496582,-15.66325 4,-14.25 22.604106,-0.27537 45.535617,0.54775 67.9375,-0.40625 3.54103,-1.33249 2.80841,-5.37022 -0.0312,-6.90625 -5.623447,-2.57609 -13.106542,-0.3479 -19.4375,-1.09375 -17.447917,0 -34.895833,0 -52.34375,0 -0.522193,-4.59598 0.07806,-9.21014 -0.03125,-13.8125 -6.0938,6.09375 -12.18755,12.1875 -18.2813,18.28125 z m 206.6875,-10.75 c 1.62683,5.25228 -4.56964,7.62142 -8.75,6.375 -20.73351,-0.40181 -41.66088,0.0732 -62.4375,-0.0625 -3.02115,1.40627 -5.58954,5.64572 -1.6875,7.59375 5.81708,2.05678 12.90577,0.0928 19.15625,0.78125 17.86458,0 35.72917,0 53.59375,0 0.52341,4.62722 -0.0796,9.27244 0.0312,13.90625 5.94792,-5.94792 11.89583,-11.89583 17.84375,-17.84375 -5.91667,-5.91667 -11.83333,-11.83333 -17.75,-17.75 0,2.33333 0,4.66667 0,7 z m -78.0625,26.9375 c 0.0662,6.00251 7.55211,8.75618 10.70035,13.4191 12.05822,12.05822 24.11643,24.11643 36.17465,36.17465 -5.34282,5.37589 -10.70078,10.7367 -16.0625,16.09375 11.70833,0 23.41667,0 35.125,0 0,-11.64583 0,-23.29167 0,-34.9375 -5.56524,5.5702 -11.13466,11.13621 -16.71875,16.6875 -16.09261,-15.86117 -31.86466,-32.32604 -48.15625,-47.8125 -0.37706,0.0998 -1.34424,-0.44335 -1.0625,0.375 z M 108.9375,141.5 c -6.33589,2.06895 -9.01333,9.1412 -14.309425,12.87192 -11.016392,10.87246 -21.935455,22.1196 -32.878075,32.90933 -5.767779,1.7796 -7.796724,-5.96099 -12.15625,-8.15625 -2.180664,-2.05217 -3.976755,-4.44247 -6.03125,-6.625 0,11.625 0,23.25 0,34.875 11.458333,0 22.916667,0 34.375,0 C 72.575338,202.01838 67.218418,196.65654 61.875,191.28125 77.76646,175.34804 93.775966,159.46373 109.59375,143.5 c 0.01,-0.624 0.61171,-2.42579 -0.65625,-2 z m -65.375,14.28125 c 5.4375,5.4375 10.875,10.875 16.3125,16.3125 10.1875,-10.1875 20.375,-20.375 30.5625,-30.5625 -15.625,0 -31.25,0 -46.875,0 0,4.75 0,9.5 0,14.25 z m 147.5,16.25 c 5.30619,-5.88031 12.53205,-10.79946 16.5625,-17.5625 -0.83556,-4.11798 1.79479,-9.16815 -0.0625,-12.8125 -15.62116,-0.29767 -31.31889,-0.0372 -46.96875,-0.125 10.15625,10.16667 20.3125,20.33333 30.46875,30.5 z M 125.15625,145 c -6.64251,3.56185 -2.53258,12.53038 -3.65625,18.59375 0,18.625 0,37.25 0,55.875 -3.5666,1.06275 -18.56188,-2.60268 -11.5754,2.826 5.13972,5.13092 10.27943,10.26183 15.41915,15.39275 6.10417,-6.10417 12.20833,-12.20833 18.3125,-18.3125 -4.41702,-0.097 -11.53004,1.71625 -13.75,-2.8125 0,-22.38542 0,-44.77083 0,-67.15625 -1.50998,-1.27397 -2.87927,-3.95344 -4.75,-4.40625 z M 79,191.1875 c 5.601065,5.23092 10.433082,12.05933 16.90625,16 4.41396,-0.78351 9.45922,1.73512 13.5,-0.1875 0,-15.39583 0,-30.79167 0,-46.1875 -10.135417,10.125 -20.270833,20.25 -30.40625,30.375 z m 63,16 c 6.32109,-0.0881 14.43852,2.49942 18.3131,-4.44547 2.44848,-4.2912 12.28362,-8.58625 10.02269,-12.87499 -9.44527,-9.44527 -18.89053,-18.89053 -28.33579,-28.33579 0,15.21875 0,30.4375 0,45.65625 z"
           style="display:inline;fill:url(#radialGradient4394);fill-opacity:1;stroke:none;stroke-width:1.00005233;stroke-miterlimit:4;stroke-opacity:1"
           inkscape:connector-curvature="0" />
      </g>
      <g
         style="display:inline"
         inkscape:label="outline"
         id="layer4">
        <path
           style="display:inline;fill:#000000;fill-opacity:0.47058824;stroke:none;stroke-width:1.00005198;stroke-miterlimit:4;stroke-opacity:1;filter:url(#filter6465)"
           d="m 126.50025,2.875 -1.4375,1.4375 -31.90625,31.90625 -54.65625,0 -2.03125,0 0,2.0625 0,54.625 L 4.31275,125.0625 2.844,126.5 l 1.46875,1.4375 32.15625,32.15625 0,54.3125 0,2.0625 2.03125,0 54.15625,0 32.21875,32.1875 1.46875,1.46875 1.4375,-1.46875 32.21875,-32.1875 54.90625,0 2.0625,0 0,-2.0625 0,-54.71875 31.75,-31.75 1.4375,-1.4375 -1.4375,-1.4375 -31.75,-31.75 0,-55.28125 0,-2.0625 -2.0625,0 -55.3125,0 L 127.969,4.3125 126.50025,2.875 Z m 0,5.78125 27.3125,27.3125 -16.84375,0 -2.0625,0 0,2.0625 0,66.65625 -8.40625,8.40625 -8.125,-8.125 0,-66.6875 0,-2.0625 -2.0625,0 -17.375,0 27.5625,-27.5625 z m 12.5,31.40625 18.90625,0 20.8125,20.8125 -39.71875,39.71875 0,-60.53125 z m 24.6875,0 49.15625,0 0,49.125 -19.25,-19.25 -1.46875,-1.4375 -1.4375,1.4375 -43.96875,43.96875 -7.71875,0 0,-7.5 44.0625,-44.09375 1.46875,-1.4375 -1.46875,-1.4375 -19.375,-19.375 z m -123.125,0.28125 48.46875,0 -19.09375,19.09375 -1.4375,1.4375 1.4375,1.4375 44.34375,44.34375 0,7.25 -8.15625,0 -43.875,-43.875 -1.46875,-1.46875 -1.4375,1.46875 -18.78125,18.78125 0,-48.46875 z m 54.25,0 19.46875,0 0,60.53125 -40,-40 20.53125,-20.53125 z m 97.3125,33.9375 L 212.844,95 l 0,18.90625 -60.3125,0 39.59375,-39.625 z M 60.7815,74.375 l 39.53125,39.53125 -59.75,0 0,-19.3125 L 60.7815,74.375 Z m -24.3125,24.3125 0,17.28125 0,2.0625 2.03125,0 65.9375,0 8.5625,8.5625 -7.84375,7.84375 -66.65625,0 -2.03125,0 0,2.03125 0,17.84375 L 8.6565,126.5 36.469,98.6875 Z m 180.5,0.4375 27.375,27.375 -27.375,27.375 0,-17.40625 0,-2.03125 -2.0625,0 -67.03125,0 -7.9375,-7.9375 8.46875,-8.46875 66.5,0 2.0625,0 0,-2.0625 0,-16.84375 z m -82.0625,11.375 0,5.46875 0,2.0625 2.0625,0 5.625,0 -7.03125,7.03125 -1.4375,1.4375 1.4375,1.4375 6.5,6.5 -5.09375,0 -2.0625,0 0,2.03125 0,6.5625 -7.125,-7.125 -1.4375,-1.4375 -1.46875,1.4375 -6.375,6.375 0,-5.8125 0,-2.03125 -2.0625,0 -5.5,0 6.40625,-6.40625 1.46875,-1.4375 -1.46875,-1.46875 -7.09375,-7.09375 6.0625,0 2.0625,0 0,-2.0625 0,-5.21875 6.6875,6.6875 1.4375,1.4375 1.46875,-1.4375 6.9375,-6.9375 z m -94.34375,28.03125 60.5,0 -40.1875,40.1875 -20.3125,-20.3125 0,-19.875 z m 66.28125,0 7.5625,0 0,7.84375 -44.46875,44.46875 -1.4375,1.4375 1.4375,1.46875 18.625,18.625 -48,0 0,-48.1875 18.875,18.875 1.4375,1.4375 1.4375,-1.4375 44.53125,-44.53125 z m 32.15625,0 7.15625,0 44.53125,44.53125 1.4375,1.4375 1.46875,-1.4375 19.25,-19.25 0,48.5625 -48.75,0 18.625,-18.625 1.4375,-1.46875 -1.4375,-1.4375 -43.71875,-43.71875 0,-8.59375 z m 12.96875,0 60.875,0 0,19.46875 -20.71875,20.71875 -40.15625,-40.1875 z m -25.625,1.71875 8.5625,8.5625 0,65.59375 0,2.0625 2.0625,0 17.21875,0 -27.84375,27.84375 -27.875,-27.84375 17.96875,0 2.0625,0 0,-2.0625 0,-66.3125 7.84375,-7.84375 z m -11.9375,11.9375 0,60.1875 -20.03125,0 -20.09375,-20.09375 40.125,-40.09375 z m 24.59375,0.71875 39.375,39.375 -20.09375,20.09375 -19.28125,0 0,-59.46875 z"
           id="path5494"
           inkscape:connector-curvature="0" />
        <path
           id="rect2140"
           d="m 125.5,1.875 -1.4375,1.4375 -31.90625,31.90625 -54.65625,0 -2.03125,0 0,2.0625 0,54.625 L 3.3125,124.0625 1.84375,125.5 l 1.46875,1.4375 32.15625,32.15625 0,54.3125 0,2.0625 2.03125,0 54.15625,0 32.21875,32.1875 1.46875,1.46875 1.4375,-1.46875 32.21875,-32.1875 54.90625,0 2.0625,0 0,-2.0625 0,-54.71875 31.75,-31.75 1.4375,-1.4375 -1.4375,-1.4375 -31.75,-31.75 0,-55.28125 0,-2.0625 -2.0625,0 -55.3125,0 L 126.96875,3.3125 125.5,1.875 Z m 0,5.78125 27.3125,27.3125 -16.84375,0 -2.0625,0 0,2.0625 0,66.65625 -8.40625,8.40625 -8.125,-8.125 0,-66.6875 0,-2.0625 -2.0625,0 -17.375,0 L 125.5,7.65625 Z m 12.5,31.40625 18.90625,0 20.8125,20.8125 L 138,99.59375 138,39.0625 Z m 24.6875,0 49.15625,0 0,49.125 -19.25,-19.25 -1.46875,-1.4375 -1.4375,1.4375 -43.96875,43.96875 -7.71875,0 0,-7.5 44.0625,-44.09375 1.46875,-1.4375 -1.46875,-1.4375 -19.375,-19.375 z m -123.125,0.28125 48.46875,0 L 68.9375,58.4375 67.5,59.875 l 1.4375,1.4375 44.34375,44.34375 0,7.25 -8.15625,0 -43.875,-43.875 -1.46875,-1.46875 -1.4375,1.46875 -18.78125,18.78125 0,-48.46875 z m 54.25,0 19.46875,0 0,60.53125 -40,-40 L 93.8125,39.34375 Z M 191.125,73.28125 211.84375,94 l 0,18.90625 -60.3125,0 39.59375,-39.625 z M 59.78125,73.375 l 39.53125,39.53125 -59.75,0 0,-19.3125 L 59.78125,73.375 Z m -24.3125,24.3125 0,17.28125 0,2.0625 2.03125,0 65.9375,0 8.5625,8.5625 -7.84375,7.84375 -66.65625,0 -2.03125,0 0,2.03125 0,17.84375 L 7.65625,125.5 35.46875,97.6875 Z m 180.5,0.4375 27.375,27.375 -27.375,27.375 0,-17.40625 0,-2.03125 -2.0625,0 -67.03125,0 -7.9375,-7.9375 8.46875,-8.46875 66.5,0 2.0625,0 0,-2.0625 0,-16.84375 z m -82.0625,11.375 0,5.46875 0,2.0625 2.0625,0 5.625,0 -7.03125,7.03125 -1.4375,1.4375 1.4375,1.4375 6.5,6.5 -5.09375,0 -2.0625,0 0,2.03125 0,6.5625 -7.125,-7.125 -1.4375,-1.4375 -1.46875,1.4375 -6.375,6.375 0,-5.8125 0,-2.03125 -2.0625,0 -5.5,0 6.40625,-6.40625 1.46875,-1.4375 -1.46875,-1.46875 -7.09375,-7.09375 6.0625,0 2.0625,0 0,-2.0625 0,-5.21875 6.6875,6.6875 1.4375,1.4375 1.46875,-1.4375 6.9375,-6.9375 z m -94.34375,28.03125 60.5,0 -40.1875,40.1875 -20.3125,-20.3125 0,-19.875 z m 66.28125,0 7.5625,0 0,7.84375 -44.46875,44.46875 -1.4375,1.4375 1.4375,1.46875 18.625,18.625 -48,0 0,-48.1875 18.875,18.875 1.4375,1.4375 1.4375,-1.4375 44.53125,-44.53125 z m 32.15625,0 7.15625,0 44.53125,44.53125 1.4375,1.4375 1.46875,-1.4375 19.25,-19.25 0,48.5625 -48.75,0 18.625,-18.625 1.4375,-1.46875 -1.4375,-1.4375 L 138,146.125 l 0,-8.59375 z m 12.96875,0 60.875,0 0,19.46875 -20.71875,20.71875 -40.15625,-40.1875 z m -25.625,1.71875 8.5625,8.5625 0,65.59375 0,2.0625 2.0625,0 17.21875,0 -27.84375,27.84375 -27.875,-27.84375 17.96875,0 2.0625,0 0,-2.0625 0,-66.3125 7.84375,-7.84375 z m -11.9375,11.9375 0,60.1875 -20.03125,0 -20.09375,-20.09375 40.125,-40.09375 z M 138,151.90625 l 39.375,39.375 -20.09375,20.09375 -19.28125,0 0,-59.46875 z"
           style="display:inline;fill:#ffffff;fill-opacity:1;stroke:none;stroke-width:1.00005198;stroke-miterlimit:4;stroke-opacity:1"
           inkscape:connector-curvature="0" />
      </g>
    </g>
  </g>
</svg>
