<?xml version="1.0" encoding="UTF-8" standalone="no"?>
<!-- Created with Inkscape (http://www.inkscape.org/) -->

<svg
   xmlns:dc="http://purl.org/dc/elements/1.1/"
   xmlns:cc="http://creativecommons.org/ns#"
   xmlns:rdf="http://www.w3.org/1999/02/22-rdf-syntax-ns#"
   xmlns:svg="http://www.w3.org/2000/svg"
   xmlns="http://www.w3.org/2000/svg"
   xmlns:sodipodi="http://sodipodi.sourceforge.net/DTD/sodipodi-0.dtd"
   xmlns:inkscape="http://www.inkscape.org/namespaces/inkscape"
   width="64"
   height="64"
   id="svg5453"
   version="1.1"
   inkscape:version="0.91 r13725"
   sodipodi:docname="redhat.svg"
   inkscape:export-filename="/home/andreas/Owncloud/kde.org/cooperateDesign/grub/Breeze/icons/kaos.png"
   inkscape:export-xdpi="90"
   inkscape:export-ydpi="90">
  <defs
     id="defs5455" />
  <sodipodi:namedview
     id="base"
     pagecolor="#ffffff"
     bordercolor="#666666"
     borderopacity="1.0"
     inkscape:pageopacity="0"
     inkscape:pageshadow="2"
     inkscape:zoom="8.5405241"
     inkscape:cx="33.11933"
     inkscape:cy="24.77093"
     inkscape:document-units="px"
     inkscape:current-layer="layer1"
     showgrid="true"
     fit-margin-top="0"
     fit-margin-left="0"
     fit-margin-right="0"
     fit-margin-bottom="0"
     inkscape:window-width="1920"
     inkscape:window-height="1011"
     inkscape:window-x="0"
     inkscape:window-y="0"
     inkscape:window-maximized="1"
     inkscape:showpageshadow="false"
     borderlayer="true"
     inkscape:snap-bbox="true"
     inkscape:snap-global="true">
    <sodipodi:guide
       position="6.0000117,57.999996"
       orientation="51.999969,0"
       id="guide4097" />
    <sodipodi:guide
       position="6.0000117,6.0000264"
       orientation="0,52"
       id="guide4099" />
    <sodipodi:guide
       position="58.000012,6.0000264"
       orientation="-51.999969,0"
       id="guide4101" />
    <sodipodi:guide
       position="58.000012,57.999996"
       orientation="0,-52"
       id="guide4103" />
    <sodipodi:guide
       position="3.0000117,60.999996"
       orientation="57.999969,0"
       id="guide4105" />
    <sodipodi:guide
       position="3.0000117,3.0000264"
       orientation="0,58"
       id="guide4107" />
    <sodipodi:guide
       position="61.000012,3.0000264"
       orientation="-57.999969,0"
       id="guide4109" />
    <sodipodi:guide
       position="61.000012,60.999996"
       orientation="0,-58"
       id="guide4111" />
    <inkscape:grid
       type="xygrid"
       id="grid4115" />
  </sodipodi:namedview>
  <metadata
     id="metadata5458">
    <rdf:RDF>
      <cc:Work
         rdf:about="">
        <dc:format>image/svg+xml</dc:format>
        <dc:type
           rdf:resource="http://purl.org/dc/dcmitype/StillImage" />
        <dc:title></dc:title>
      </cc:Work>
    </rdf:RDF>
  </metadata>
  <g
     inkscape:label="Capa 1"
     inkscape:groupmode="layer"
     id="layer1"
     transform="translate(-384.57143,-483.798)">
    <g
       id="layer1-8"
       transform="matrix(1.5675707,0,0,1.5675707,-530.28711,-1030.2886)">
      <path
         style="fill:#ffffff;fill-opacity:1;fill-rule:nonzero;stroke:none"
         id="path3262"
         transform="matrix(0.1526125,0,0,-0.1526125,585.52921,1004.7882)"
         d="m 222.91499,55.31201 c -4.66999,1.07401 -9.627,1.75 -14.638,1.75 -8.569,0 -16.36799,-1.48401 -22.12097,-3.88199 -0.63501,-0.31097 -1.08601,-0.975 -1.08601,-1.729 0,-0.27499 0.07,-0.55499 0.17399,-0.79004 0.68,-1.96896 -0.438,-4.10495 -6.003,-5.33096 -8.25501,-1.81302 -13.46498,-10.32901 -16.44899,-13.15399 -3.5,-3.32901 -13.388,-5.37201 -11.90201,-3.38901 1.16499,1.54699 5.616,6.38098 8.323,11.60501 2.421,4.668 4.578,6.00101 7.54701,10.45199 0.87099,1.30399 4.24799,5.89701 5.23199,9.53101 1.103,3.54297 0.72899,7.99002 1.153,9.82199 0.60801,2.642 3.10102,8.37299 3.291,11.61099 0.10701,1.83002 -7.64399,-2.61401 -11.32,-2.61401 -3.678,0 -7.25998,2.202 -10.545,2.36002 -4.06598,0.19201 -6.679,-3.13498 -10.35599,-2.556 -2.10301,0.33801 -3.87199,2.18899 -7.54399,2.32602 -5.22702,0.18896 -11.61203,-2.905 -23.60901,-2.51801 -11.802,0.38297 -22.70212,14.91199 -24.1904,17.22299 -1.74121,2.70902 -3.8696,2.70902 -6.19241,0.57999 -2.32279,-2.12796 -5.18408,-0.45599 -5.99851,0.97302 -1.54788,2.70499 -5.68609,10.62198 -12.09478,12.28198 -8.8642,2.297 -13.353,-4.90701 -12.77051,-10.64199 0.59131,-5.81998 4.35351,-7.45002 6.0957,-10.543 1.74079,-3.09803 2.63239,-5.09299 5.90869,-6.461 2.32471,-0.97 3.19001,-2.40201 2.49662,-4.31 -0.60599,-1.66 -3.0239,-2.039 -4.61179,-2.11499 -3.37753,-0.164 -5.74463,0.75397 -7.4707,1.85297 -2.00733,1.28302 -3.64063,3.057 -5.39261,6.07904 -2.0278,3.32898 -5.22171,4.78497 -8.94089,4.78497 -1.77341,0 -3.4321,-0.47101 -4.90723,-1.22897 -5.82959,-3.03803 -12.77099,-4.832 -20.24267,-4.832 l -8.4263,-0.0061 C 22.48239,34.51401 67.80182,0 121.18202,0 163.821,0 201.317,22.02103 222.91499,55.31201"
         inkscape:connector-curvature="0" />
      <path
         style="fill:#0f0f10;fill-opacity:1;fill-rule:nonzero;stroke:none"
         d="m -260.2793,-121.09961 c -89.87889,0 -162.79101,72.911449 -162.79101,162.792969 0,18.191355 3.01403,35.63534 8.52343,51.970703 l 11.2754,0 c 10.03391,0 19.39394,-2.530549 27.22265,-6.599609 1.98099,-1.019317 4.21805,-1.648446 6.59961,-1.648437 4.99459,0 9.37642,2.126279 12.09961,6.599609 2.35278,4.052913 4.45469,6.260987 7.15039,7.974609 2.31799,1.481206 5.36267,2.688066 9.89844,2.474606 2.13242,-0.10075 5.51237,-0.51807 6.32617,-2.749996 0.93117,-2.559588 -0.17886,-4.482178 -3.30078,-5.775391 -4.39983,-1.839808 -5.63685,-4.365678 -7.97461,-8.523437 -2.33963,-4.154962 -7.45591,-6.484938 -8.25,-14.300782 -0.78224,-7.699038 5.14681,-17.383531 17.05078,-14.298828 8.6064,2.225204 14.14397,12.859322 16.22266,16.5 1.09372,1.9123 5.13066,4.230025 8.25,1.375 3.11936,-2.860445 5.91168,-2.819143 8.25,0.824219 1.99865,3.102117 16.59999,22.58794 32.44922,23.099609 16.11106,0.517064 24.60354,-3.832644 31.62304,-3.576172 4.93123,0.189368 7.34963,2.852214 10.17383,3.300782 4.93793,0.780259 8.56508,-3.834739 14.02539,-3.574219 4.41154,0.216294 9.08416,3.298828 14.02344,3.298828 4.93661,0 15.5441,-6.03445 15.40039,-3.574219 -0.2551,4.34168 -3.58388,12.127176 -4.40039,15.673826 -0.56942,2.45889 -0.16916,8.43591 -1.65039,13.19922 -1.32144,4.87619 -5.98071,10.89516 -7.15039,12.65039 -3.98716,5.98137 -6.64721,7.75336 -9.89844,14.02344 -3.6353,7.0182 -9.71089,13.59102 -11.27539,15.67383 -1.99558,2.66172 11.24898,-0.2113 15.94922,-4.67383 4.0073,-3.80185 10.91412,-15.1649 22,-17.59961 7.47339,-1.64374 9.16319,-4.50084 8.25,-7.15039 -0.13965,-0.31027 -0.27539,-0.73302 -0.27539,-1.09961 0,-1.01257 0.52223,-1.77619 1.375,-2.19922 7.72583,-3.21498 18.19168,-5.22461 29.69922,-5.22461 6.7294,0 13.52736,0.75688 19.79882,2.19922 16.52071,-25.46593 26.123052,-55.657928 26.123052,-88.269531 0,-89.881511 -72.916292,-162.792969 -162.792972,-162.792969 z m 35.26172,236.16992 c -0.0185,0.005 -0.0386,0.0174 -0.0625,0.043 -2.11106,2.44145 -3.15292,3.45638 -4.67578,4.67578 -3.67023,2.95441 -7.75933,-0.61995 -10.44922,-2.19922 -5.97736,-3.50501 -10.92858,-1.07504 -12.09961,1.64844 -1.16833,2.73285 0.0458,5.9257 3.30078,5.5 4.55521,-0.58957 4.95046,0.10562 8.25,2.19922 6.13718,3.8919 10.63548,1.83579 12.92383,0 1.90428,-1.51883 2.86122,-2.82734 3.84961,-4.67383 1.76326,-3.48625 0.28588,-6.33392 -0.55078,-7.15039 -0.0927,-0.0783 -0.14048,0 -0.27344,0 -0.11279,0 -0.15738,-0.0573 -0.21289,-0.043 z m 122.03125,3.61914 c -2.47096,0 -4.40039,2.19881 -4.40039,4.67383 0,2.47361 1.92945,4.4004 4.40039,4.40039 2.47503,0 4.400392,-1.92678 4.400392,-4.40039 0,-2.47502 -1.925352,-4.67382 -4.400392,-4.67383 z m 0,0.82422 c 2.03319,0 3.574212,1.81506 3.574221,3.84961 0,2.03324 -1.541011,3.57423 -3.574221,3.57422 -2.03586,0 -3.8496,-1.54098 -3.84961,-3.57422 0,-2.03454 1.81376,-3.84961 3.84961,-3.84961 z m -1.65039,1.375 0,4.67578 0.82617,0 0,-1.92578 0.82422,0 1.09961,1.92578 0.82617,0 -1.375,-1.92578 c 0.67546,-0.0845 1.375,-0.55848 1.375,-1.375 -10e-6,-0.90514 -0.56934,-1.375 -1.65039,-1.375 l -1.92578,0 z m 0.82617,0.55078 0.82422,0 c 0.48081,1e-5 1.09961,0.26026 1.09961,0.82422 -1e-5,0.70511 -0.51408,0.82422 -1.09961,0.82422 l -0.82422,0 0,-1.64844 z"
         transform="matrix(0.11364173,0,0,0.11364173,633.60772,981.56303)"
         id="path3248"
         inkscape:connector-curvature="0" />
      <path
         style="fill:#cc0000;fill-opacity:1;fill-rule:nonzero;stroke:none"
         id="path3266"
         transform="matrix(0.1526125,0,0,-0.1526125,585.52921,1004.7882)"
         d="m 189.563,153.41962 c -1.197,-4.0244 -2.89898,-9.17339 -10.47599,-13.06261 -1.10201,-0.56398 -1.52501,0.362 -1.015,1.23199 2.863,4.87111 3.37098,6.08892 4.20298,8.01033 1.16401,2.80759 1.77401,6.8042 -0.54199,15.13859 -4.55701,16.3999 -14.065,38.3213 -20.974,45.43411 -6.669,6.8613 -18.754,8.79399 -29.67599,5.99119 -4.02098,-1.03071 -11.89002,-5.123 -26.48603,-1.8359 -25.25717,5.68701 -28.99978,-6.96 -30.44857,-12.4688 -1.45111,-5.5107 -4.92963,-21.1709 -4.92963,-21.1709 -1.16116,-6.37691 -2.68018,-17.46721 36.53922,-24.93651 18.26901,-3.47999 19.19902,-8.2021 20.00799,-11.59959 1.44902,-6.08752 3.76903,-9.5705 6.37801,-11.30951 2.61102,-1.742 0,-3.18298 -2.89701,-3.479 -7.77996,-0.80799 -36.53947,7.43899 -53.55272,17.10641 -13.91888,8.5073 -14.15377,16.1684 -10.96817,22.666 -21.02639,2.27289 -36.80419,-1.97221 -39.66561,-11.92479 -4.91257,-17.08561 37.5577,-46.26462 85.91653,-60.90561 50.748,-15.367 102.94299,-4.64001 108.74498,27.25901 2.63402,14.492 -9.571,25.2135 -30.159,29.85559 z m -63.10598,54.3672 c -0.021,-0.002 -0.043,-0.005 -0.064,-0.005 -0.21597,0 -0.39099,0.16701 -0.39099,0.3672 0,0.1465 0.089,0.2739 0.21902,0.33301 2.71498,1.43359 6.76198,2.57469 11.39699,3.04588 1.38999,0.14301 2.74899,0.21532 4.05599,0.22702 0.231,0 0.458,-0.001 0.693,-0.005 7.766,-0.17529 13.987,-3.2608 13.89301,-6.8921 -0.092,-3.6328 -6.46001,-6.4366 -14.228,-6.2622 -2.517,0.0576 -4.876,0.4213 -6.90701,1.00831 -0.23801,0.0625 -0.41499,0.2666 -0.41499,0.50918 0,0.24321 0.17698,0.4493 0.42001,0.50881 4.84699,1.12258 8.11798,2.9546 7.88698,4.6866 -0.306,2.29539 -6.64501,3.5439 -14.15799,2.78799 -0.82199,-0.0825 -1.62601,-0.18839 -2.40199,-0.30899 z M 111.75201,184.6564 c -13.9981,-1.01268 -15.45269,-2.52488 -18.07431,-5.31688 -3.6972,-3.938 -8.56729,5.10941 -8.56729,5.10941 -2.92141,0.6142 -6.46539,5.32519 -4.55282,9.72699 1.88284,4.3521 5.36184,3.0459 6.4512,1.6914 1.32571,-1.64941 4.1553,-4.3491 7.82809,-4.251 3.67435,0.0967 7.91312,0.8687 13.82413,0.8687 5.991,0 10.019,-2.23581 10.24599,-4.1572 0.194,-1.64111 -0.485,-3.189 -7.15499,-3.67142"
         inkscape:connector-curvature="0" />
    </g>
  </g>
</svg>
