<?xml version="1.0" encoding="UTF-8" standalone="no"?>
<!-- Created with Inkscape (http://www.inkscape.org/) -->

<svg
   xmlns:dc="http://purl.org/dc/elements/1.1/"
   xmlns:cc="http://creativecommons.org/ns#"
   xmlns:rdf="http://www.w3.org/1999/02/22-rdf-syntax-ns#"
   xmlns:svg="http://www.w3.org/2000/svg"
   xmlns="http://www.w3.org/2000/svg"
   xmlns:sodipodi="http://sodipodi.sourceforge.net/DTD/sodipodi-0.dtd"
   xmlns:inkscape="http://www.inkscape.org/namespaces/inkscape"
   width="64"
   height="64"
   id="svg5453"
   version="1.1"
   inkscape:version="0.91 r13725"
   sodipodi:docname="kubuntu.svg"
   inkscape:export-filename="/home/andreas/Owncloud/kde.org/cooperateDesign/grub/Breeze/icons/kaos.png"
   inkscape:export-xdpi="90"
   inkscape:export-ydpi="90">
  <defs
     id="defs5455" />
  <sodipodi:namedview
     id="base"
     pagecolor="#ffffff"
     bordercolor="#666666"
     borderopacity="1.0"
     inkscape:pageopacity="0"
     inkscape:pageshadow="2"
     inkscape:zoom="12.078125"
     inkscape:cx="17.097025"
     inkscape:cy="32.455369"
     inkscape:document-units="px"
     inkscape:current-layer="layer1"
     showgrid="true"
     fit-margin-top="0"
     fit-margin-left="0"
     fit-margin-right="0"
     fit-margin-bottom="0"
     inkscape:window-width="1920"
     inkscape:window-height="1011"
     inkscape:window-x="0"
     inkscape:window-y="0"
     inkscape:window-maximized="1"
     inkscape:showpageshadow="false"
     borderlayer="true"
     inkscape:snap-bbox="true"
     inkscape:snap-global="true">
    <sodipodi:guide
       position="6.0000117,57.999996"
       orientation="51.999969,0"
       id="guide4097" />
    <sodipodi:guide
       position="6.0000117,6.0000264"
       orientation="0,52"
       id="guide4099" />
    <sodipodi:guide
       position="58.000012,6.0000264"
       orientation="-51.999969,0"
       id="guide4101" />
    <sodipodi:guide
       position="58.000012,57.999996"
       orientation="0,-52"
       id="guide4103" />
    <sodipodi:guide
       position="3.0000117,60.999996"
       orientation="57.999969,0"
       id="guide4105" />
    <sodipodi:guide
       position="3.0000117,3.0000264"
       orientation="0,58"
       id="guide4107" />
    <sodipodi:guide
       position="61.000012,3.0000264"
       orientation="-57.999969,0"
       id="guide4109" />
    <sodipodi:guide
       position="61.000012,60.999996"
       orientation="0,-58"
       id="guide4111" />
    <inkscape:grid
       type="xygrid"
       id="grid4115" />
  </sodipodi:namedview>
  <metadata
     id="metadata5458">
    <rdf:RDF>
      <cc:Work
         rdf:about="">
        <dc:format>image/svg+xml</dc:format>
        <dc:type
           rdf:resource="http://purl.org/dc/dcmitype/StillImage" />
        <dc:title></dc:title>
      </cc:Work>
    </rdf:RDF>
  </metadata>
  <g
     inkscape:label="Capa 1"
     inkscape:groupmode="layer"
     id="layer1"
     transform="translate(-384.57143,-483.798)">
    <g
       id="g9812"
       transform="matrix(0.57997233,0,0,0.57997233,387.57677,486.8076)">
      <path
         id="path9796"
         d="M 99.99,50.01 C 100.3,69.67 87.62,88.63 69.45,96.07 51.6,103.8 29.43,99.82 15.5,86.2 1.391,73.09 -3.759,51.49 2.828,33.4 9.197,14.65 27.61,0.8338 47.42,0.0911 66.68,-1.153 85.92,10.01 94.52,27.26 c 3.6,7 5.48,14.87 5.47,22.75 z"
         inkscape:connector-curvature="0"
         style="fill:#0079c1" />
      <path
         id="path9798"
         d="m 33.62,67.87 c 0.56,-12.29 1.13,-24.57 1.7,-36.86 -3.77,-3.43 -7.54,-6.86 -11.3,-10.29 -1.78,0.18 -2.8,2.43 -4.25,3.49 -1.64,1.13 -2.61,2.76 -0.89,4.34 1.69,2.79 3.39,5.58 5.08,8.37 -1.82,2.57 -1.64,6.81 -5.62,6.49 -2.83,0.69 -5.81,1.01 -8.555,1.94 -0.246,2.68 -0.254,5.54 0,8.22 3.645,1.23 7.525,1.89 11.265,2.9 0.31,3.41 4.25,6.54 0.96,9.37 -1.52,2.5 -3.42,4.84 -4.7,7.45 1.72,2.07 3.73,4.09 5.81,5.82 2.11,-1.46 3.66,-3.91 5.55,-5.76 1.65,-1.83 3.3,-3.65 4.96,-5.48 z"
         inkscape:connector-curvature="0"
         style="fill:#ffffff" />
      <path
         id="path9800"
         d="m 42.2,27.06 c 10.53,6.45 21.05,12.91 31.58,19.36 4.94,-1.08 9.88,-2.17 14.82,-3.25 0.77,-1.61 -0.61,-3.65 -0.77,-5.44 -0.11,-1.98 -1,-3.66 -3.24,-3.01 -3.27,0 -6.53,0 -9.8,0 -1.25,-2.9 -4.96,-4.95 -2.63,-8.17 0.88,-2.79 2.17,-5.5 2.8,-8.32 -2.17,-1.61 -4.6,-3.1 -7.03,-4.28 -2.94,2.47 -5.52,5.44 -8.32,8.11 -3.08,-1.5 -7.8,0.24 -8.51,-4.04 -1.35,-2.6 -2.36,-5.44 -3.92,-7.89 -2.66,0.39 -5.44,1.06 -7.99,1.94 0.12,3.06 1.25,6.18 1.77,9.26 0.41,1.91 0.83,3.83 1.24,5.74 z"
         inkscape:connector-curvature="0"
         style="fill:#ffffff" />
      <path
         id="path9802"
         d="M 73.16,55.12 C 62.54,60.95 51.92,66.77 41.3,72.59 c -1.29,4.86 -2.57,9.72 -3.86,14.59 1.04,1.45 3.5,1.21 5.14,1.94 1.8,0.85 3.7,0.88 4.21,-1.4 1.57,-2.86 3.14,-5.72 4.71,-8.58 3.14,0.29 6.73,-1.98 8.44,1.63 2.01,2.1 3.77,4.54 5.95,6.44 2.44,-1.12 4.92,-2.54 7.12,-4.09 -0.75,-3.77 -2.11,-7.47 -3.1,-11.21 2.79,-1.97 3.54,-6.94 7.63,-5.51 2.93,0.1 5.91,0.54 8.81,0.36 0.93,-2.53 1.68,-5.28 2.14,-7.94 -2.32,-1.12 -5.21,-1.26 -7.75,-2 -2.53,-0.56 -5.06,-1.13 -7.58,-1.7 z"
         inkscape:connector-curvature="0"
         style="fill:#ffffff" />
      <path
         id="path9804"
         d="M 74.13,50.01 C 74.42,62.23 64.05,73.42 51.85,74.07 39.68,75.3 27.73,65.81 26.14,53.69 24.04,41.84 32.26,29.4 43.96,26.64 c 11.6,-3.26 24.8,3.69 28.7,15.08 0.97,2.65 1.47,5.47 1.47,8.29 z"
         inkscape:connector-curvature="0"
         style="fill:#0079c1" />
    </g>
  </g>
</svg>
