<?xml version="1.0" encoding="UTF-8" standalone="no"?>
<!-- Created with Inkscape (http://www.inkscape.org/) -->

<svg
   xmlns:dc="http://purl.org/dc/elements/1.1/"
   xmlns:cc="http://creativecommons.org/ns#"
   xmlns:rdf="http://www.w3.org/1999/02/22-rdf-syntax-ns#"
   xmlns:svg="http://www.w3.org/2000/svg"
   xmlns="http://www.w3.org/2000/svg"
   xmlns:xlink="http://www.w3.org/1999/xlink"
   xmlns:sodipodi="http://sodipodi.sourceforge.net/DTD/sodipodi-0.dtd"
   xmlns:inkscape="http://www.inkscape.org/namespaces/inkscape"
   width="64"
   height="64"
   id="svg5453"
   version="1.1"
   inkscape:version="0.91 r13725"
   sodipodi:docname="mandriva.svg"
   inkscape:export-filename="/home/andreas/Owncloud/kde.org/cooperateDesign/grub/Breeze/icons/kaos.png"
   inkscape:export-xdpi="90"
   inkscape:export-ydpi="90">
  <defs
     id="defs5455">
    <linearGradient
       id="linearGradient4760">
      <stop
         id="stop4762"
         offset="0"
         style="stop-color:#fac45a;stop-opacity:1;" />
      <stop
         style="stop-color:#f7a909;stop-opacity:1;"
         offset="0.52493125"
         id="stop4768" />
      <stop
         id="stop4764"
         offset="1"
         style="stop-color:#d49109;stop-opacity:1" />
    </linearGradient>
    <linearGradient
       id="linearGradient3998">
      <stop
         id="stop4000"
         offset="0"
         style="stop-color:#617ec4;stop-opacity:1;" />
      <stop
         id="stop4002"
         offset="1"
         style="stop-color:#244c8d;stop-opacity:1;" />
    </linearGradient>
    <clipPath
       clipPathUnits="userSpaceOnUse"
       id="clipPath3104">
      <path
         d="m 752.129,352.969 38.742,-32.539 c 0,0 -161.101,-195.16 -165.734,-196.7 -4.637,-1.539 -559.1018,0 -559.1018,0 l 0,548.286 c 0,0 -69.7227,323.714 0,323.714 69.6718,0 280.3318,0 280.3318,0 l 0,-75.921 0,-114.59 0,-263.324 0,-215.266 60.371,-65.059 54.25,-6.172 83.614,13.907 207.527,83.664"
         id="path3106" />
    </clipPath>
    <clipPath
       clipPathUnits="userSpaceOnUse"
       id="clipPath3060">
      <path
         d="M 0,1172.06 0,0 l 4503.57,0 0,1172.06"
         id="path3062" />
    </clipPath>
    <linearGradient
       gradientUnits="userSpaceOnUse"
       y2="144.42999"
       x2="451.91058"
       y1="935.98401"
       x1="451.91058"
       id="linearGradient4417"
       xlink:href="#linearGradient3998"
       inkscape:collect="always" />
    <linearGradient
       gradientUnits="userSpaceOnUse"
       y2="300.62057"
       x2="1140.4358"
       y1="974.90161"
       x1="480.53683"
       id="linearGradient4776"
       xlink:href="#linearGradient4760"
       inkscape:collect="always" />
    <filter
       id="filter5397"
       inkscape:collect="always">
      <feGaussianBlur
         id="feGaussianBlur5399"
         stdDeviation="2.2183429"
         inkscape:collect="always" />
    </filter>
    <linearGradient
       inkscape:collect="always"
       xlink:href="#linearGradient4760"
       id="linearGradient10698"
       gradientUnits="userSpaceOnUse"
       x1="480.53683"
       y1="974.90161"
       x2="1140.4358"
       y2="300.62057" />
    <linearGradient
       inkscape:collect="always"
       xlink:href="#linearGradient4760"
       id="linearGradient10700"
       gradientUnits="userSpaceOnUse"
       x1="480.53683"
       y1="974.90161"
       x2="1140.4358"
       y2="300.62057" />
    <linearGradient
       inkscape:collect="always"
       xlink:href="#linearGradient4760"
       id="linearGradient10702"
       gradientUnits="userSpaceOnUse"
       x1="480.53683"
       y1="974.90161"
       x2="1140.4358"
       y2="300.62057" />
    <linearGradient
       inkscape:collect="always"
       xlink:href="#linearGradient4760"
       id="linearGradient10704"
       gradientUnits="userSpaceOnUse"
       x1="480.53683"
       y1="974.90161"
       x2="1140.4358"
       y2="300.62057" />
    <linearGradient
       inkscape:collect="always"
       xlink:href="#linearGradient4760"
       id="linearGradient10706"
       gradientUnits="userSpaceOnUse"
       x1="480.53683"
       y1="974.90161"
       x2="1140.4358"
       y2="300.62057" />
    <linearGradient
       inkscape:collect="always"
       xlink:href="#linearGradient4760"
       id="linearGradient10708"
       gradientUnits="userSpaceOnUse"
       x1="480.53683"
       y1="974.90161"
       x2="1140.4358"
       y2="300.62057" />
    <linearGradient
       inkscape:collect="always"
       xlink:href="#linearGradient4760"
       id="linearGradient10710"
       gradientUnits="userSpaceOnUse"
       x1="480.53683"
       y1="974.90161"
       x2="1140.4358"
       y2="300.62057" />
    <linearGradient
       inkscape:collect="always"
       xlink:href="#linearGradient4760"
       id="linearGradient10712"
       gradientUnits="userSpaceOnUse"
       x1="480.53683"
       y1="974.90161"
       x2="1140.4358"
       y2="300.62057" />
    <linearGradient
       inkscape:collect="always"
       xlink:href="#linearGradient4760"
       id="linearGradient10714"
       gradientUnits="userSpaceOnUse"
       x1="480.53683"
       y1="974.90161"
       x2="1140.4358"
       y2="300.62057" />
    <linearGradient
       inkscape:collect="always"
       xlink:href="#linearGradient4760"
       id="linearGradient10716"
       gradientUnits="userSpaceOnUse"
       x1="480.53683"
       y1="974.90161"
       x2="1140.4358"
       y2="300.62057" />
    <linearGradient
       inkscape:collect="always"
       xlink:href="#linearGradient4760"
       id="linearGradient10718"
       gradientUnits="userSpaceOnUse"
       x1="480.53683"
       y1="974.90161"
       x2="1140.4358"
       y2="300.62057" />
    <linearGradient
       inkscape:collect="always"
       xlink:href="#linearGradient4760"
       id="linearGradient10720"
       gradientUnits="userSpaceOnUse"
       x1="480.53683"
       y1="974.90161"
       x2="1140.4358"
       y2="300.62057" />
    <linearGradient
       inkscape:collect="always"
       xlink:href="#linearGradient4760"
       id="linearGradient10722"
       gradientUnits="userSpaceOnUse"
       x1="480.53683"
       y1="974.90161"
       x2="1140.4358"
       y2="300.62057" />
    <linearGradient
       inkscape:collect="always"
       xlink:href="#linearGradient4760"
       id="linearGradient10724"
       gradientUnits="userSpaceOnUse"
       x1="480.53683"
       y1="974.90161"
       x2="1140.4358"
       y2="300.62057" />
    <linearGradient
       inkscape:collect="always"
       xlink:href="#linearGradient4760"
       id="linearGradient10726"
       gradientUnits="userSpaceOnUse"
       x1="480.53683"
       y1="974.90161"
       x2="1140.4358"
       y2="300.62057" />
    <linearGradient
       inkscape:collect="always"
       xlink:href="#linearGradient4760"
       id="linearGradient10728"
       gradientUnits="userSpaceOnUse"
       x1="480.53683"
       y1="974.90161"
       x2="1140.4358"
       y2="300.62057" />
    <linearGradient
       inkscape:collect="always"
       xlink:href="#linearGradient4760"
       id="linearGradient10730"
       gradientUnits="userSpaceOnUse"
       x1="480.53683"
       y1="974.90161"
       x2="1140.4358"
       y2="300.62057" />
    <linearGradient
       inkscape:collect="always"
       xlink:href="#linearGradient4760"
       id="linearGradient10732"
       gradientUnits="userSpaceOnUse"
       x1="480.53683"
       y1="974.90161"
       x2="1140.4358"
       y2="300.62057" />
    <linearGradient
       inkscape:collect="always"
       xlink:href="#linearGradient4760"
       id="linearGradient10734"
       gradientUnits="userSpaceOnUse"
       x1="480.53683"
       y1="974.90161"
       x2="1140.4358"
       y2="300.62057" />
    <linearGradient
       inkscape:collect="always"
       xlink:href="#linearGradient3998"
       id="linearGradient10736"
       gradientUnits="userSpaceOnUse"
       x1="451.91058"
       y1="935.98401"
       x2="451.91058"
       y2="144.42999" />
    <linearGradient
       inkscape:collect="always"
       xlink:href="#linearGradient3998"
       id="linearGradient10738"
       gradientUnits="userSpaceOnUse"
       x1="451.91058"
       y1="935.98401"
       x2="451.91058"
       y2="144.42999" />
  </defs>
  <sodipodi:namedview
     id="base"
     pagecolor="#ffffff"
     bordercolor="#666666"
     borderopacity="1.0"
     inkscape:pageopacity="0"
     inkscape:pageshadow="2"
     inkscape:zoom="6.0390625"
     inkscape:cx="7.0891272"
     inkscape:cy="20.076597"
     inkscape:document-units="px"
     inkscape:current-layer="layer1"
     showgrid="true"
     fit-margin-top="0"
     fit-margin-left="0"
     fit-margin-right="0"
     fit-margin-bottom="0"
     inkscape:window-width="1920"
     inkscape:window-height="1011"
     inkscape:window-x="0"
     inkscape:window-y="0"
     inkscape:window-maximized="1"
     inkscape:showpageshadow="false"
     borderlayer="true"
     inkscape:snap-bbox="true"
     inkscape:snap-global="true">
    <sodipodi:guide
       position="6.0000117,57.999996"
       orientation="51.999969,0"
       id="guide4097" />
    <sodipodi:guide
       position="6.0000117,6.0000264"
       orientation="0,52"
       id="guide4099" />
    <sodipodi:guide
       position="58.000012,6.0000264"
       orientation="-51.999969,0"
       id="guide4101" />
    <sodipodi:guide
       position="58.000012,57.999996"
       orientation="0,-52"
       id="guide4103" />
    <sodipodi:guide
       position="3.0000117,60.999996"
       orientation="57.999969,0"
       id="guide4105" />
    <sodipodi:guide
       position="3.0000117,3.0000264"
       orientation="0,58"
       id="guide4107" />
    <sodipodi:guide
       position="61.000012,3.0000264"
       orientation="-57.999969,0"
       id="guide4109" />
    <sodipodi:guide
       position="61.000012,60.999996"
       orientation="0,-58"
       id="guide4111" />
    <inkscape:grid
       type="xygrid"
       id="grid4115" />
  </sodipodi:namedview>
  <metadata
     id="metadata5458">
    <rdf:RDF>
      <cc:Work
         rdf:about="">
        <dc:format>image/svg+xml</dc:format>
        <dc:type
           rdf:resource="http://purl.org/dc/dcmitype/StillImage" />
        <dc:title></dc:title>
      </cc:Work>
    </rdf:RDF>
  </metadata>
  <g
     inkscape:label="Capa 1"
     inkscape:groupmode="layer"
     id="layer1"
     transform="translate(-384.57143,-483.798)">
    <g
       transform="matrix(0.21240127,0,0,0.21240127,373.82272,522.27923)"
       id="layer1-3"
       inkscape:label="Layer 1">
      <path
         style="fill:#8e8f93;fill-opacity:1;fill-rule:nonzero;stroke:none;filter:url(#filter5397)"
         d="m -196.38281,-98.115234 c -0.14841,0.0055 -0.30078,0.02929 -0.45508,0.07031 -0.46291,0.12308 -0.94857,0.406935 -1.44531,0.853516 -0.33117,0.29772 -0.66645,0.667578 -1.00196,1.111328 -0.16775,0.221875 -0.33667,0.461983 -0.5039,0.720703 l -31.78125,49.251953 c -0.16687,0.257593 -0.34806,0.511449 -0.54102,0.757813 -0.57887,0.739089 -1.2694,1.423996 -2.04101,2.042968 -0.25721,0.206325 -0.52293,0.404842 -0.79688,0.595703 -0.27394,0.190862 -0.5554,0.374488 -0.84375,0.548829 -0.57669,0.34868 -1.18051,0.663205 -1.80078,0.939453 -0.62027,0.276247 -1.25721,0.513636 -1.90234,0.708984 -1.9354,0.586045 -3.94121,0.790525 -5.76368,0.496094 l -57.87109,-9.322266 c -0.30446,-0.04937 -0.59575,-0.08513 -0.87305,-0.109375 -0.27729,-0.02425 -0.54143,-0.03704 -0.79101,-0.03711 -0.24959,-7.2e-5 -0.48569,0.01201 -0.70703,0.03516 -0.66402,0.06945 -1.19945,0.242625 -1.59961,0.503906 -0.26678,0.174188 -0.47305,0.386802 -0.61719,0.636719 -0.0721,0.124959 -0.12931,0.259882 -0.16992,0.402344 -0.12183,0.427384 -0.10068,0.93029 0.0703,1.498047 0.114,0.378504 0.29542,0.785435 0.54492,1.216797 0.12475,0.21568 0.26635,0.43855 0.42578,0.666015 0.15944,0.227466 0.33661,0.460921 0.53125,0.699219 L -269.30078,1.625 c 0.38786,0.4778263 0.73867,1.0011656 1.05078,1.5585938 0.15605,0.278714 0.30276,0.5645499 0.43945,0.859375 0.1367,0.294825 0.2638,0.5978402 0.38086,0.90625 1.05352,2.775688 1.30495,6.0514052 0.6543,8.9042972 -0.14459,0.633976 -0.33345,1.245915 -0.56836,1.828125 -0.11746,0.291104 -0.24626,0.575235 -0.38672,0.849609 l -26.75391,52.15625 c -0.56019,1.097707 -0.86024,2.05523 -0.92382,2.84375 -0.0318,0.39426 -0.005,0.745294 0.0781,1.052734 0.12534,0.461161 0.37772,0.822351 0.7461,1.070313 0.24558,0.165308 0.54435,0.27918 0.89062,0.341797 0.34627,0.06262 0.74056,0.07376 1.18164,0.02734 0.22054,-0.02321 0.45217,-0.06162 0.69531,-0.113282 0.48629,-0.103322 1.01755,-0.264444 1.58985,-0.486328 l 54.67383,-21.166016 c 0.57382,-0.221071 1.18023,-0.391269 1.80664,-0.515624 0.3132,-0.06218 0.63052,-0.113557 0.95312,-0.152344 0.64521,-0.07757 1.3068,-0.108539 1.97461,-0.0957 0.3339,0.0064 0.67006,0.0245 1.00586,0.05273 0.3358,0.02823 0.6726,0.06571 1.00781,0.115234 0.67042,0.09904 1.33721,0.240833 1.99024,0.421875 0.32651,0.09052 0.64837,0.190549 0.96679,0.300782 0.31843,0.110233 0.63358,0.229955 0.94141,0.359375 0.30783,0.129419 0.60956,0.269888 0.9043,0.417968 0.29473,0.148081 0.58218,0.304488 0.86133,0.470703 0.55254,0.32901 1.07,0.6948 1.54687,1.091797 -30.60492,20.64494 -77.67624,44.868848 -107.46289,16.484375 -17.33589,-16.51804 -19.86684,-47.257309 -19.03516,-69.6054684 0.94171,-25.2988606 11.388,-48.9355786 28.07227,-67.7304686 -4.51785,5.08836 -10.22837,9.146686 -14.76172,14.253906 -16.25018,18.30695 -25.66551,40.210557 -27.87109,64.591797 -2.15486,23.82917 1.67164,54.658321 18.83398,72.744141 31.59996,33.302784 90.31885,-3.738155 118.01758,-23.865235 2.11198,-1.534237 3.97229,-3.411175 5.77539,-5.363281 l 40.4668,40.699219 c 0.43407,0.43782 0.85443,0.803756 1.25781,1.097656 0.20169,0.14695 0.39927,0.275088 0.5918,0.386719 0.96263,0.558151 1.804,0.678516 2.46289,0.386719 0.13177,-0.05836 0.2564,-0.133574 0.37304,-0.22461 0.46657,-0.364144 0.80758,-0.988073 0.99219,-1.857422 0.0923,-0.434674 0.14637,-0.930638 0.15625,-1.486328 0.005,-0.277845 -0.002,-0.571468 -0.0195,-0.878906 l -3.23047,-58.541016 c -0.0169,-0.30652 -0.0206,-0.616927 -0.01,-0.929687 0.0324,-0.938281 0.18631,-1.899191 0.44532,-2.853516 0.0863,-0.318108 0.18397,-0.635738 0.29297,-0.951172 0.43597,-1.261736 1.04874,-2.493239 1.79687,-3.623047 0.18703,-0.282452 0.38255,-0.559489 0.58594,-0.828125 1.01696,-1.343175 2.23103,-2.499458 3.5625,-3.330078 0.26629,-0.166124 0.5374,-0.318095 0.8125,-0.457031 l 52.31445,-26.4648438 c 0.27457,-0.1394856 0.5316,-0.2820385 0.76953,-0.4257812 0.7138,-0.431228 1.26233,-0.8797707 1.64844,-1.3300781 0.12871,-0.1501025 0.23951,-0.2991335 0.33203,-0.4492188 0.0925,-0.1500853 0.1662,-0.3002192 0.22266,-0.4492187 0.0565,-0.1489996 0.0967,-0.2984673 0.11719,-0.4453125 0.0205,-0.1468452 0.0212,-0.2919245 0.006,-0.4355469 -0.0766,-0.7181118 -0.60052,-1.3879143 -1.56446,-1.9453125 -0.38557,-0.2229593 -0.84125,-0.4290428 -1.36719,-0.6113281 -0.26296,-0.091143 -0.54195,-0.1764881 -0.83984,-0.2558594 l -56.66016,-15.005859 c -0.59517,-0.157407 -1.18713,-0.373229 -1.76757,-0.640625 -1.16089,-0.534792 -2.2789,-1.2756 -3.29883,-2.158204 -0.50997,-0.441301 -0.99501,-0.91861 -1.44922,-1.423828 -0.22711,-0.252609 -0.4476,-0.511635 -0.6582,-0.777343 -0.21061,-0.265709 -0.41112,-0.537565 -0.60352,-0.814453 -0.19239,-0.276889 -0.37635,-0.557602 -0.54883,-0.84375 -0.51742,-0.858445 -0.94066,-1.754881 -1.24804,-2.66211 -0.20492,-0.604819 -0.35865,-1.214962 -0.45313,-1.822266 l -9.00977,-57.929687 c -0.0472,-0.303783 -0.10331,-0.591013 -0.16601,-0.861328 -0.0627,-0.270315 -0.13183,-0.525097 -0.20899,-0.761719 -0.0772,-0.236622 -0.1614,-0.455499 -0.25195,-0.658203 -0.0905,-0.202704 -0.18815,-0.38808 -0.29101,-0.556641 -0.30859,-0.505683 -0.67013,-0.858393 -1.07032,-1.052734 -0.13339,-0.06478 -0.27067,-0.110889 -0.41211,-0.140625 -0.14143,-0.02974 -0.28714,-0.04264 -0.43554,-0.03711 z m 98.669919,69.253906 c -1.992676,0.04431 -3.134939,0.190184 -3.740229,1.21289 -0.65605,1.10856 -3.69922,6.791016 -3.69922,6.791016 0,0 -3.12298,5.641869 -3.69727,6.792969 -0.53002,1.06547 -0.035,2.103577 1.00977,3.802734 l 0,0.002 c 0,0 0.002,0 0.002,0 1.99325,-0.0459 3.13646,-0.190753 3.74219,-1.214843 0.65603,-1.10855 3.69726,-6.792969 3.69726,-6.792969 0,0 3.124784,-5.640189 3.701174,-6.792969 0.53028,-1.06432 0.02993,-2.102001 -1.011718,-3.800781 -0.0014,3.2e-5 -0.0025,-3.2e-5 -0.0039,0 z m -23.835939,0.332031 c -0.40707,-0.01232 -0.8623,-0.0034 -1.37109,0.01563 0,0 -0.002,0.002 -0.002,0.002 -0.96108,1.796376 -1.40636,2.88743 -0.79882,3.941407 0.65813,1.140619 4.1875,6.703124 4.1875,6.703124 0,0 3.45182,5.611755 4.1875,6.703126 0.68303,1.006741 1.85845,1.084595 3.89648,1.007812 0.95995,-1.79707 1.40471,-2.887766 0.79688,-3.941406 -0.65603,-1.13978 -4.1875,-6.703125 -4.1875,-6.703125 0,0 -3.45378,-5.611482 -4.18946,-6.701172 -0.51089,-0.756585 -1.2983,-0.990372 -2.51953,-1.027344 z m 34.33008,18.361328 c -1.31207,-0.031 -7.878906,0.08203 -7.878906,0.08203 0,0 -6.570744,0.02038 -7.882814,0.08008 -1.20878,0.057371 -1.88621,1.0156589 -2.87891,2.7890621 0,0 0,0.00195 0,0.00195 1.02912,1.7503401 1.72395,2.6953326 2.9375,2.7265626 1.31208,0.0335 7.878911,-0.082031 7.878911,-0.082031 0,0 6.570743,-0.019478 7.882813,-0.080078 1.0549,-0.047713 1.715287,-0.8240744 2.523437,-2.1875 l 0,-1.1738282 c -0.841534,-1.3604212 -1.520253,-2.1283265 -2.582031,-2.1562505 z m -18.89258,6.0957034 c -0.40689,-0.012218 -0.86408,-0.00376 -1.37305,0.015625 -0.95994,1.79624 -1.4047,2.8886062 -0.79687,3.94140622 0.65603,1.13978998 4.18945,6.70117188 4.18945,6.70117188 0,0 3.45182,5.6098015 4.187503,6.7011715 0.68119,1.00459 1.853502,1.083903 3.888672,1.007813 0,0 0.002,-0.002 0.002,-0.002 0.963181,-1.797214 1.404269,-2.885267 0.798828,-3.939453 -0.65813,-1.1395694 -4.1875,-6.7011722 -4.1875,-6.7011722 0,0 -3.451813,-5.6086988 -4.187493,-6.6992188 -0.5109,-0.7547025 -1.29908,-0.9886842 -2.52149,-1.0253906 z m -4.99805,0.1210937 c -1.98905,0.0467 -3.13268,0.1911107 -3.73632,1.2128907 -0.65394,1.10855 -3.68946,6.7871093 -3.68946,6.7871093 0,0 -3.11516,5.6362835 -3.68945,6.7890629 -0.53028,1.06181 -0.0319,2.100405 1.00977,3.796875 0,0 0.002,0 0.002,0 1.99192,-0.04516 3.13472,-0.192322 3.74023,-1.212891 0.65184,-1.1094 3.6875,-6.7871094 3.6875,-6.7871094 0,0 3.11502,-5.63663935 3.69141,-6.78710935 0.52793,-1.06380045 0.0293,-2.10218085 -1.01563,-3.79882815 z"
         transform="translate(425.18098,-30.93512)"
         id="path60-4"
         inkscape:connector-curvature="0" />
      <g
         id="g4434">
        <g
           id="g3056"
           transform="matrix(0.20959593,0,0,-0.20959593,36.143205,94.286138)"
           style="fill:url(#linearGradient4776);fill-opacity:1">
          <g
             clip-path="url(#clipPath3060)"
             id="g3058"
             style="fill:url(#linearGradient10734);fill-opacity:1">
            <path
               id="path3064"
               style="fill:url(#linearGradient10698);fill-opacity:1;fill-rule:nonzero;stroke:none"
               d="m 922.363,1069.2 c -3.601,23.19 -17.011,26.01 -29.777,6.26 L 740.953,840.469 c -12.738,-19.664 -42.125,-32.793 -65.312,-29.047 l -276.114,44.469 c -23.242,3.769 -30.054,-8.098 -15.195,-26.289 L 560.938,612.738 c 14.804,-18.238 18.214,-50.172 7.492,-71.117 L 440.785,292.773 c -10.691,-20.949 -1.531,-31.066 20.313,-22.597 L 721.957,371.16 c 21.902,8.438 53.359,1.789 69.953,-14.812 L 989.102,158.012 c 16.568,-16.711 29.058,-11.18 27.748,12.289 l -15.42,279.308 c -1.29,23.399 14.72,51.289 35.72,61.895 l 249.6,126.266 c 20.96,10.648 19.51,24.222 -3.23,30.281 l -270.33,71.597 c -22.717,6.008 -44.229,29.981 -47.835,53.161 L 922.363,1069.2"
               inkscape:connector-curvature="0" />
            <path
               id="path3066"
               style="fill:url(#linearGradient10700);fill-opacity:1;stroke:#fab217;stroke-width:3.91599989;stroke-linecap:butt;stroke-linejoin:miter;stroke-miterlimit:4;stroke-dasharray:none;stroke-opacity:1"
               d="m 922.363,1069.2 c -3.601,23.19 -17.011,26.01 -29.777,6.26 L 740.953,840.469 c -12.738,-19.664 -42.125,-32.793 -65.312,-29.047 l -276.114,44.469 c -23.242,3.769 -30.054,-8.098 -15.195,-26.289 L 560.938,612.738 c 14.804,-18.238 18.214,-50.172 7.492,-71.117 L 440.785,292.773 c -10.691,-20.949 -1.531,-31.066 20.313,-22.597 L 721.957,371.16 c 21.902,8.438 53.359,1.789 69.953,-14.812 L 989.102,158.012 c 16.568,-16.711 29.058,-11.18 27.748,12.289 l -15.42,279.308 c -1.29,23.399 14.72,51.289 35.72,61.895 l 249.6,126.266 c 20.96,10.648 19.51,24.222 -3.23,30.281 l -270.33,71.597 c -22.717,6.008 -44.229,29.981 -47.835,53.161 L 922.363,1069.2 Z"
               inkscape:connector-curvature="0" />
            <path
               id="path3068"
               style="fill:url(#linearGradient10702);fill-opacity:1;fill-rule:nonzero;stroke:none"
               d="m 1379.61,758.195 -48.33,-88.75"
               inkscape:connector-curvature="0" />
            <path
               id="path3070"
               style="fill:url(#linearGradient10704);fill-opacity:1;fill-rule:nonzero;stroke:none"
               d="m 1379.61,758.195 -48.33,-88.75"
               inkscape:connector-curvature="0" />
            <path
               id="path3072"
               style="fill:url(#linearGradient10706);fill-opacity:1;fill-rule:nonzero;stroke:none"
               d="m 1379.62,758.191 c -9.52,-0.211 -14.98,-0.902 -17.87,-5.785 C 1358.62,747.117 1344.1,720 1344.1,720 c 0,0 -14.9,-26.914 -17.64,-32.406 -2.53,-5.086 -0.16,-10.039 4.83,-18.153 9.51,0.219 14.97,0.911 17.86,5.797 3.13,5.289 17.64,32.407 17.64,32.407 0,0 14.9,26.91 17.65,32.41 2.53,5.078 0.15,10.031 -4.82,18.136"
               inkscape:connector-curvature="0" />
            <path
               id="path3074"
               style="fill:url(#linearGradient10708);fill-opacity:1;fill-rule:nonzero;stroke:none"
               d="m 1443.69,655.984 -102.96,-1.062"
               inkscape:connector-curvature="0" />
            <path
               id="path3076"
               style="fill:url(#linearGradient10710);fill-opacity:1;fill-rule:nonzero;stroke:none"
               d="m 1443.69,655.984 -102.96,-1.062"
               inkscape:connector-curvature="0" />
            <path
               id="path3078"
               style="fill:url(#linearGradient10712);fill-opacity:1;fill-rule:nonzero;stroke:none"
               d="m 1443.69,655.977 c -4.91,8.367 -8.24,12.875 -14.02,13.027 -6.26,0.148 -37.59,-0.391 -37.59,-0.391 0,0 -31.35,-0.101 -37.61,-0.386 -5.77,-0.274 -9,-4.848 -13.74,-13.317 4.91,-8.351 8.23,-12.859 14.02,-13.008 6.26,-0.16 37.59,0.391 37.59,0.391 0,0 31.35,0.098 37.61,0.387 5.77,0.261 9,4.843 13.74,13.297"
               inkscape:connector-curvature="0" />
            <path
               id="path3080"
               style="fill:url(#linearGradient10714);fill-opacity:1;fill-rule:nonzero;stroke:none"
               d="m 1387.71,552.293 -54.72,87.551"
               inkscape:connector-curvature="0" />
            <path
               id="path3082"
               style="fill:url(#linearGradient10716);fill-opacity:1;fill-rule:nonzero;stroke:none"
               d="m 1387.71,552.293 -54.72,87.551"
               inkscape:connector-curvature="0" />
            <path
               id="path3084"
               style="fill:url(#linearGradient10718);fill-opacity:1;fill-rule:nonzero;stroke:none"
               d="m 1387.7,552.285 c 4.6,8.582 6.71,13.777 3.82,18.809 -3.14,5.437 -19.98,31.972 -19.98,31.972 0,0 -16.47,26.762 -19.98,31.965 -3.25,4.801 -8.85,5.18 -18.58,4.809 -4.58,-8.57 -6.7,-13.774 -3.8,-18.797 3.13,-5.438 19.98,-31.973 19.98,-31.973 0,0 16.47,-26.765 19.98,-31.972 3.25,-4.793 8.85,-5.176 18.56,-4.813"
               inkscape:connector-curvature="0" />
            <path
               id="path3086"
               style="fill:url(#linearGradient10720);fill-opacity:1;fill-rule:nonzero;stroke:none"
               d="m 1267.48,550.664 48.21,88.676"
               inkscape:connector-curvature="0" />
            <path
               id="path3088"
               style="fill:url(#linearGradient10722);fill-opacity:1;fill-rule:nonzero;stroke:none"
               d="m 1267.48,550.664 48.21,88.676"
               inkscape:connector-curvature="0" />
            <path
               id="path3090"
               style="fill:url(#linearGradient10724);fill-opacity:1;fill-rule:nonzero;stroke:none"
               d="m 1267.47,550.664 c 9.51,0.215 14.96,0.918 17.85,5.789 3.11,5.293 17.6,32.383 17.6,32.383 0,0 14.86,26.894 17.61,32.383 2.52,5.078 0.14,10.023 -4.85,18.125 -9.49,-0.223 -14.94,-0.918 -17.82,-5.793 -3.12,-5.289 -17.61,-32.383 -17.61,-32.383 0,0 -14.86,-26.891 -17.6,-32.391 -2.53,-5.066 -0.15,-10.019 4.82,-18.113"
               inkscape:connector-curvature="0" />
            <path
               id="path3092"
               style="fill:url(#linearGradient10726);fill-opacity:1;fill-rule:nonzero;stroke:none"
               d="m 1306.2,653.945 0,0"
               inkscape:connector-curvature="0" />
            <path
               id="path3094"
               style="fill:url(#linearGradient10728);fill-opacity:1;fill-rule:nonzero;stroke:none"
               d="m 1259.32,756.523 54.73,-87.578"
               inkscape:connector-curvature="0" />
            <path
               id="path3096"
               style="fill:url(#linearGradient10730);fill-opacity:1;fill-rule:nonzero;stroke:none"
               d="m 1259.32,756.523 54.73,-87.578"
               inkscape:connector-curvature="0" />
            <path
               id="path3098"
               style="fill:url(#linearGradient10732);fill-opacity:1;fill-rule:nonzero;stroke:none"
               d="m 1259.33,756.527 c -4.59,-8.578 -6.72,-13.777 -3.82,-18.808 3.14,-5.442 19.98,-31.985 19.98,-31.985 0,0 16.47,-26.769 19.98,-31.976 3.26,-4.805 8.86,-5.176 18.59,-4.809 4.58,8.574 6.7,13.774 3.8,18.801 -3.13,5.438 -19.98,31.98 -19.98,31.98 0,0 -16.47,26.778 -19.98,31.977 -3.25,4.813 -8.86,5.184 -18.57,4.82"
               inkscape:connector-curvature="0" />
          </g>
        </g>
        <g
           id="g3100"
           transform="matrix(0.20959593,0,0,-0.20959593,36.143205,94.286138)"
           style="fill:url(#linearGradient4417);fill-opacity:1;stroke:none">
          <g
             clip-path="url(#clipPath3104)"
             id="g3102"
             style="fill:url(#linearGradient10738);fill-opacity:1;stroke:none">
            <path
               id="path3108"
               style="fill:url(#linearGradient10736);fill-opacity:1;fill-rule:nonzero;stroke:none"
               d="M 248.527,867.977 C 170.996,780.633 126.074,676.137 115.551,559.812 105.27,446.121 123.527,299.031 205.41,212.742 c 150.766,-158.8904 430.914,17.832 563.067,113.86 26.214,19.043 44.378,49.082 70.429,68.007 C 699.469,293.289 435.48,128.621 275.836,280.75 c -82.711,78.809 -94.781,225.461 -90.813,332.086 4.493,120.703 54.332,233.476 133.934,323.148 -21.555,-24.277 -48.801,-43.64 -70.43,-68.007"
               inkscape:connector-curvature="0" />
          </g>
        </g>
      </g>
    </g>
  </g>
</svg>
