<?xml version="1.0" encoding="UTF-8" standalone="no"?>
<!-- Created with Inkscape (http://www.inkscape.org/) -->

<svg
   xmlns:dc="http://purl.org/dc/elements/1.1/"
   xmlns:cc="http://creativecommons.org/ns#"
   xmlns:rdf="http://www.w3.org/1999/02/22-rdf-syntax-ns#"
   xmlns:svg="http://www.w3.org/2000/svg"
   xmlns="http://www.w3.org/2000/svg"
   xmlns:sodipodi="http://sodipodi.sourceforge.net/DTD/sodipodi-0.dtd"
   xmlns:inkscape="http://www.inkscape.org/namespaces/inkscape"
   width="64"
   height="64"
   id="svg5453"
   version="1.1"
   inkscape:version="0.91 r13725"
   sodipodi:docname="ubuntustudio.svg"
   inkscape:export-filename="/home/andreas/Owncloud/kde.org/cooperateDesign/grub/Breeze/icons/puppy.png"
   inkscape:export-xdpi="90"
   inkscape:export-ydpi="90">
  <defs
     id="defs5455" />
  <sodipodi:namedview
     id="base"
     pagecolor="#ffffff"
     bordercolor="#666666"
     borderopacity="1.0"
     inkscape:pageopacity="0"
     inkscape:pageshadow="2"
     inkscape:zoom="12.078125"
     inkscape:cx="31.473957"
     inkscape:cy="30.541501"
     inkscape:document-units="px"
     inkscape:current-layer="layer1"
     showgrid="true"
     fit-margin-top="0"
     fit-margin-left="0"
     fit-margin-right="0"
     fit-margin-bottom="0"
     inkscape:window-width="1920"
     inkscape:window-height="1011"
     inkscape:window-x="0"
     inkscape:window-y="0"
     inkscape:window-maximized="1"
     inkscape:showpageshadow="false"
     borderlayer="true"
     inkscape:snap-bbox="true"
     inkscape:snap-global="true">
    <sodipodi:guide
       position="6.0000117,57.999996"
       orientation="51.999969,0"
       id="guide4097" />
    <sodipodi:guide
       position="6.0000117,6.0000264"
       orientation="0,52"
       id="guide4099" />
    <sodipodi:guide
       position="58.000012,6.0000264"
       orientation="-51.999969,0"
       id="guide4101" />
    <sodipodi:guide
       position="58.000012,57.999996"
       orientation="0,-52"
       id="guide4103" />
    <sodipodi:guide
       position="3.0000117,60.999996"
       orientation="57.999969,0"
       id="guide4105" />
    <sodipodi:guide
       position="3.0000117,3.0000264"
       orientation="0,58"
       id="guide4107" />
    <sodipodi:guide
       position="61.000012,3.0000264"
       orientation="-57.999969,0"
       id="guide4109" />
    <sodipodi:guide
       position="61.000012,60.999996"
       orientation="0,-58"
       id="guide4111" />
    <inkscape:grid
       type="xygrid"
       id="grid4115" />
  </sodipodi:namedview>
  <metadata
     id="metadata5458">
    <rdf:RDF>
      <cc:Work
         rdf:about="">
        <dc:format>image/svg+xml</dc:format>
        <dc:type
           rdf:resource="http://purl.org/dc/dcmitype/StillImage" />
        <dc:title></dc:title>
      </cc:Work>
    </rdf:RDF>
  </metadata>
  <g
     inkscape:label="Capa 1"
     inkscape:groupmode="layer"
     id="layer1"
     transform="translate(-384.57143,-483.798)">
    <g
       id="layer1-4"
       transform="matrix(0.8785005,0,0,0.87666635,890.0544,117.4283)">
      <path
         style="fill:#009bf9;fill-opacity:1;stroke:none"
         id="path10060-3"
         d="m -538.96721,421.33441 c -18.25617,0 -33.0108,14.75463 -33.0108,33.0108 0,18.25617 14.75463,33.14892 33.0108,33.14892 18.25617,0 33.01079,-14.89275 33.01079,-33.14892 0,-18.25617 -14.75462,-33.0108 -33.01079,-33.0108 z m 6.90602,5.11045 c 0.35846,-0.045 0.73561,-0.10347 1.10497,0 4.92601,1.38107 9.13155,3.79945 12.70708,7.45851 0.31073,0.30984 0.55497,0.82572 0.69061,1.24309 0.25811,0.77276 0.10828,1.54063 -0.27624,2.20993 -0.23071,0.40176 -0.54691,0.71655 -0.96684,0.96684 -1.11987,0.66753 -2.56198,0.53732 -3.45302,-0.41414 -2.98601,-3.0558 -6.10704,-4.92394 -10.22091,-6.07731 -1.47752,-0.41325 -2.209,-1.97554 -1.79557,-3.453 0.31028,-1.10816 1.13453,-1.79915 2.20992,-1.9337 z m -7.04413,8.56347 c 5.024,0 9.99576,1.84666 13.81204,5.66296 7.63256,7.63255 7.63256,20.12961 0,27.76221 -7.6326,7.6326 -19.99153,7.63256 -27.62411,0 -0.6852,-0.66612 -1.07166,-1.70005 -0.82872,-2.6243 0.24311,-0.92422 1.00947,-1.5526 1.93369,-1.79555 0.92424,-0.2431 1.95818,0.004 2.62429,0.6906 5.60518,5.60517 14.56043,5.60517 20.1656,0 5.60517,-5.60519 5.60517,-14.69854 0,-20.30371 -5.60517,-5.60519 -14.56042,-5.60519 -20.1656,0 -0.98492,1.08454 -2.6447,1.26115 -3.72926,0.27623 -1.08454,-0.98492 -1.26115,-2.78283 -0.27623,-3.86738 0.057,-0.0633 0.21305,-0.0808 0.27623,-0.13788 3.8163,-3.8163 8.78806,-5.66296 13.81207,-5.66296 z m 0,9.11596 c 2.6699,0 5.29688,1.01516 7.32038,3.03864 4.04703,4.04705 4.04703,10.73186 0,14.77891 -4.04705,4.04703 -10.59373,4.04703 -14.64078,0 -4.04703,-4.04705 -4.04703,-10.73186 0,-14.77891 2.0235,-2.02348 4.65049,-3.03864 7.3204,-3.03864 z m -25.13794,0.96684 c 0.46316,-0.004 0.95174,0.0442 1.3812,0.27624 1.14528,0.62285 1.60733,1.92498 1.24309,3.17677 -1.10581,4.1269 -1.10581,7.75146 0,11.87838 0.3978,1.48179 -0.45193,2.91704 -1.93369,3.31487 -1.4818,0.39779 -3.05518,-0.45191 -3.45301,-1.93367 -1.3241,-4.94167 -1.3241,-9.69916 0,-14.64079 0.1083,-0.42518 0.40087,-0.77545 0.69061,-1.10496 0.53302,-0.61626 1.29992,-0.9564 2.0718,-0.96684 z m 8.42535,2.34805 c 0.56234,-0.0575 1.14925,0.10348 1.65745,0.41414 1.01639,0.62148 1.57104,1.89333 1.24307,3.03865 -0.70327,2.62465 -0.70327,4.69574 0,7.3204 0.37923,1.41413 -0.51955,2.93547 -1.93368,3.31487 -1.41413,0.37923 -2.79737,-0.51955 -3.17677,-1.93368 -0.91186,-3.40306 -0.91186,-6.67973 0,-10.08279 0.12469,-0.49476 0.31735,-1.03346 0.69061,-1.3812 0.43491,-0.40707 0.95699,-0.63323 1.51932,-0.69061 z m 16.71259,1.79558 c -1.35205,0 -2.68755,0.61572 -3.72926,1.65743 -2.08344,2.08344 -2.08344,5.37508 0,7.4585 2.08343,2.08344 5.37507,2.08344 7.45851,0 2.08343,-2.08342 2.08338,-5.37506 0,-7.4585 -1.04172,-1.04171 -2.37723,-1.65743 -3.72925,-1.65743 z m 18.09378,21.27055 c 0.60759,-0.0827 1.23698,0.0782 1.79556,0.41414 0.419,0.25193 0.73763,0.56432 0.96684,0.96684 0.38188,0.67085 0.53759,1.57629 0.27625,2.34805 -0.13746,0.41679 -0.37879,0.79628 -0.69061,1.10497 -3.58998,3.64483 -7.77562,5.95885 -12.70708,7.32038 -1.47911,0.40751 -3.04542,-0.45454 -3.45301,-1.93369 -0.40751,-1.47911 0.45454,-2.9073 1.93369,-3.31489 4.11842,-1.13706 7.22278,-3.0334 10.22091,-6.0773 0.44742,-0.47408 1.04985,-0.7462 1.65745,-0.82872 z"
         inkscape:connector-curvature="0" />
    </g>
  </g>
</svg>
