<svg xmlns="http://www.w3.org/2000/svg" xmlns:svg="http://www.w3.org/2000/svg" xmlns:xlink="http://www.w3.org/1999/xlink" id="svg5453" width="64" height="64" version="1.1"><defs id="defs5455"><filter id="Adobe_OpacityMaskFilter_2_" width="130.018" height="139.517" x="79.326" y="392.755" filterUnits="userSpaceOnUse"><feColorMatrix id="feColorMatrix6678" type="matrix" values="1 0 0 0 0 0 1 0 0 0 0 0 1 0 0 0 0 0 1 0"/></filter><linearGradient id="XMLID_15_" x1="150.564" x2="150.564" y1="392.512" y2="468.356" gradientUnits="userSpaceOnUse"><stop id="stop6521" offset=".083" stop-color="#fff" stop-opacity="1"/><stop id="stop6523" offset=".543" stop-color="#787878" stop-opacity="1"/><stop id="stop10822" offset=".858" stop-color="#222" stop-opacity="1"/><stop id="stop10824" offset="1" stop-color="#000" stop-opacity="1"/><stop id="stop4713" offset=".083" stop-color="#FFF"/><stop id="stop4715" offset=".472" stop-color="#FFF"/><stop id="stop4717" offset="1" stop-color="#000"/></linearGradient><radialGradient id="radialGradient5466" cx="0" cy="0" r="1" fx="0" fy="0" gradientTransform="matrix(87.915421,0,0,-101.16849,66.262207,327.99121)" gradientUnits="userSpaceOnUse" spreadMethod="pad"><stop id="stop5468" offset="0" stop-color="#fff" stop-opacity="1"/><stop id="stop5470" offset="1" stop-color="#000" stop-opacity="1"/></radialGradient><radialGradient id="radialGradient5510" cx="0" cy="0" r="1" fx="0" fy="0" gradientTransform="matrix(118.84012,0,0,-121.28204,97.416504,407.68848)" gradientUnits="userSpaceOnUse" spreadMethod="pad"><stop id="stop5512" offset="0" stop-color="red" stop-opacity="1"/><stop id="stop5514" offset=".612" stop-color="#6b0000" stop-opacity="1"/><stop id="stop5516" offset="1" stop-color="red" stop-opacity="1"/></radialGradient><mask id="XMLID_58_"><g id="g6920" filter="url(#Adobe_OpacityMaskFilter_3_)"><radialGradient id="XMLID_59_" cx="875.553" cy="470.9" r="101.168" gradientTransform="matrix(0.869,0,0,1,13.3735,0)" gradientUnits="userSpaceOnUse"><stop id="stop6923" offset="0" stop-color="#fff" stop-opacity="1"/><stop id="stop6925" offset="1" stop-color="#000" stop-opacity="1"/><stop id="stop4731" offset="0" stop-color="#FFF"/><stop id="stop4733" offset=".5" stop-color="#FFF"/><stop id="stop4735" offset="1" stop-color="#000"/></radialGradient><rect id="rect6927" width="173.926" height="159.154" x="723.721" y="334.139" fill="url(#XMLID_59_)"/></g></mask><linearGradient id="XMLID_33_" x1="219.559" x2="213.365" y1="421.217" y2="416.928" gradientUnits="userSpaceOnUse"><stop id="stop6624" offset=".083" stop-color="#fff" stop-opacity="1"/><stop id="stop6626" offset=".543" stop-color="#787878" stop-opacity="1"/><stop id="stop6628" offset=".858" stop-color="#222" stop-opacity="1"/><stop id="stop6630" offset="1" stop-color="#000" stop-opacity="1"/><stop id="stop4743" offset=".083" stop-color="#FFF"/><stop id="stop4745" offset=".472" stop-color="#FFF"/><stop id="stop4747" offset="1" stop-color="#000"/></linearGradient><radialGradient id="XMLID_32_" cx="428.627" cy="505.022" r="34.047" gradientTransform="matrix(0.5251,0.8511,-1.1214,0.6919,522.6777,-297.5888)" gradientUnits="userSpaceOnUse"><stop id="stop6617" offset="0" stop-color="#fff" stop-opacity="1"/><stop id="stop6619" offset="1" stop-color="#000" stop-opacity="1"/><stop id="stop4752" offset="0" stop-color="#FFF"/><stop id="stop4754" offset=".5" stop-color="#FFF"/><stop id="stop4756" offset="1" stop-color="#000"/></radialGradient><mask id="XMLID_29_"><g id="g6594" filter="url(#Adobe_OpacityMaskFilter_2_)"><radialGradient id="XMLID_30_" cx="91.932" cy="512.898" r="101.168" gradientTransform="matrix(0.869,0,0,1,13.3735,0)" gradientUnits="userSpaceOnUse"><stop id="stop6597" offset="0" stop-color="#fff" stop-opacity="1"/><stop id="stop6599" offset="1" stop-color="#000" stop-opacity="1"/><stop id="stop4763" offset="0" stop-color="#FFF"/><stop id="stop4765" offset=".5" stop-color="#FFF"/><stop id="stop4767" offset="1" stop-color="#000"/></radialGradient><rect id="rect6601" width="173.927" height="159.154" x="42.754" y="376.137" fill="url(#XMLID_30_)"/></g></mask><linearGradient id="XMLID_28_" x1="334.9" x2="444.504" y1="517.115" y2="617.799" gradientTransform="matrix(0,1,-1,0,727.4141,64.918)" gradientUnits="userSpaceOnUse"><stop id="stop6572" offset=".01" stop-color="#34b3d1" stop-opacity="1"/><stop id="stop6574" offset=".174" stop-color="#fff" stop-opacity="1"/><stop id="stop6576" offset=".331" stop-color="#fdbf6f" stop-opacity="1"/><stop id="stop6578" offset=".427" stop-color="#ffff7f" stop-opacity="1"/><stop id="stop6580" offset=".5" stop-color="#673920" stop-opacity="1"/><stop id="stop6582" offset=".652" stop-color="#b55004" stop-opacity="1"/><stop id="stop6584" offset="1" stop-color="#4e0901" stop-opacity="1"/><stop id="stop4778" offset=".01" stop-color="#34B3D1"/><stop id="stop4780" offset=".5" stop-color="#34B3D1"/><stop id="stop4782" offset=".174" stop-color="#FFF"/><stop id="stop4784" offset=".5" stop-color="#FFF"/><stop id="stop4786" offset=".332" stop-color="#FDBF6F"/><stop id="stop4788" offset=".5" stop-color="#FDBF6F"/><stop id="stop4790" offset=".427" stop-color="#FFFF7F"/><stop id="stop4792" offset=".5" stop-color="#FFFF7F"/><stop id="stop4794" offset=".5" stop-color="#673920"/><stop id="stop4796" offset=".5" stop-color="#673920"/><stop id="stop4798" offset=".652" stop-color="#B55004"/><stop id="stop4800" offset=".5" stop-color="#B55004"/><stop id="stop4802" offset="1" stop-color="#4E0901"/></linearGradient><radialGradient id="XMLID_27_" cx="180.82" cy="448.822" r="10.715" gradientTransform="matrix(0.8176,0.4207,-0.6942,1.3491,264.1674,-234.5282)" gradientUnits="userSpaceOnUse"><stop id="stop6563" offset=".258" stop-color="#fff" stop-opacity="1"/><stop id="stop6565" offset=".376" stop-color="#afafaf" stop-opacity="1"/><stop id="stop6567" offset="1" stop-color="#000" stop-opacity="1"/><stop id="stop4808" offset=".258" stop-color="#FFF"/><stop id="stop4810" offset=".5" stop-color="#FFF"/><stop id="stop4812" offset=".376" stop-color="#AFAFAF"/><stop id="stop4814" offset=".5" stop-color="#AFAFAF"/><stop id="stop4816" offset="1" stop-color="#000"/></radialGradient><radialGradient id="XMLID_26_" cx="214.694" cy="446.043" r="15.605" gradientTransform="matrix(0.6946,0.6025,-0.9942,1.1461,403.3423,-210.1935)" gradientUnits="userSpaceOnUse"><stop id="stop6554" offset=".258" stop-color="#fff" stop-opacity="1"/><stop id="stop6556" offset=".376" stop-color="#afafaf" stop-opacity="1"/><stop id="stop6558" offset="1" stop-color="#000" stop-opacity="1"/><stop id="stop4822" offset=".258" stop-color="#FFF"/><stop id="stop4824" offset=".5" stop-color="#FFF"/><stop id="stop4826" offset=".376" stop-color="#AFAFAF"/><stop id="stop4828" offset=".5" stop-color="#AFAFAF"/><stop id="stop4830" offset="1" stop-color="#000"/></radialGradient><radialGradient id="XMLID_25_" cx="289.676" cy="288.772" r="15.604" gradientTransform="matrix(0.1206,-0.18,0.6605,0.4425,-132.7312,321.8344)" gradientUnits="userSpaceOnUse"><stop id="stop6545" offset=".258" stop-color="#fff" stop-opacity="1"/><stop id="stop6547" offset=".376" stop-color="#afafaf" stop-opacity="1"/><stop id="stop6549" offset="1" stop-color="#000" stop-opacity="1"/><stop id="stop4836" offset=".258" stop-color="#FFF"/><stop id="stop4838" offset=".5" stop-color="#FFF"/><stop id="stop4840" offset=".376" stop-color="#AFAFAF"/><stop id="stop4842" offset=".5" stop-color="#AFAFAF"/><stop id="stop4844" offset="1" stop-color="#000"/></radialGradient><radialGradient id="XMLID_24_" cx="1770.705" cy="245.728" r="15.604" gradientTransform="matrix(0.1133,0.1847,-0.8524,0.5229,214.4986,-56.4528)" gradientUnits="userSpaceOnUse"><stop id="stop6536" offset=".258" stop-color="#fff" stop-opacity="1"/><stop id="stop6538" offset=".376" stop-color="#afafaf" stop-opacity="1"/><stop id="stop6540" offset="1" stop-color="#000" stop-opacity="1"/><stop id="stop4850" offset=".258" stop-color="#FFF"/><stop id="stop4852" offset=".5" stop-color="#FFF"/><stop id="stop4854" offset=".376" stop-color="#AFAFAF"/><stop id="stop4856" offset=".5" stop-color="#AFAFAF"/><stop id="stop4858" offset="1" stop-color="#000"/></radialGradient><linearGradient id="XMLID_23_" x1="260.401" x2="190.754" y1="366.79" y2="442.886" gradientUnits="userSpaceOnUse"><stop id="stop6525" offset=".163" stop-color="#ff5900" stop-opacity="1"/><stop id="stop6527" offset=".187" stop-color="#ff5000" stop-opacity="1"/><stop id="stop6529" offset=".292" stop-color="#ff2f00" stop-opacity="1"/><stop id="stop6531" offset="1" stop-color="#eb0000" stop-opacity="1"/><stop id="stop4865" offset=".163" stop-color="#FF5900"/><stop id="stop4867" offset=".472" stop-color="#FF5900"/><stop id="stop4869" offset=".292" stop-color="#FF2F00"/><stop id="stop4871" offset=".5" stop-color="#FF2F00"/><stop id="stop4873" offset="1" stop-color="#EB0000"/></linearGradient><radialGradient id="XMLID_22_" cx="167.124" cy="407.109" r="19.206" gradientUnits="userSpaceOnUse"><stop id="stop6518" offset="0" stop-color="#b00000" stop-opacity="1"/><stop id="stop6520" offset="1" stop-color="#fff" stop-opacity="1"/><stop id="stop4878" offset="0" stop-color="#B00000"/><stop id="stop4880" offset=".5" stop-color="#B00000"/><stop id="stop4882" offset="1" stop-color="#FFF"/></radialGradient><radialGradient id="XMLID_21_" cx="170.938" cy="406.631" r="53.576" gradientUnits="userSpaceOnUse"><stop id="stop6511" offset="0" stop-color="#b00000" stop-opacity="1"/><stop id="stop6513" offset="1" stop-color="#ebbfbf" stop-opacity="1"/><stop id="stop4887" offset="0" stop-color="#B00000"/><stop id="stop4889" offset=".5" stop-color="#B00000"/><stop id="stop4891" offset="1" stop-color="#EBBFBF"/></radialGradient><linearGradient id="XMLID_20_" x1="175.943" x2="224.35" y1="405.294" y2="405.294" gradientUnits="userSpaceOnUse"><stop id="stop6500" offset="0" stop-color="#fff" stop-opacity="1"/><stop id="stop6502" offset=".502" stop-color="#787878" stop-opacity="1"/><stop id="stop6504" offset=".845" stop-color="#222" stop-opacity="1"/><stop id="stop6506" offset="1" stop-color="#000" stop-opacity="1"/><stop id="stop4898" offset="0" stop-color="#FFF"/><stop id="stop4900" offset=".472" stop-color="#FFF"/><stop id="stop4902" offset="1" stop-color="#000"/></linearGradient><linearGradient id="XMLID_18_" x1="182.379" x2="204.3" y1="395.214" y2="410.94" gradientUnits="userSpaceOnUse"><stop id="stop6487" offset=".083" stop-color="#fff" stop-opacity="1"/><stop id="stop6489" offset=".543" stop-color="#787878" stop-opacity="1"/><stop id="stop6491" offset=".858" stop-color="#222" stop-opacity="1"/><stop id="stop6493" offset="1" stop-color="#000" stop-opacity="1"/><stop id="stop4909" offset=".083" stop-color="#FFF"/><stop id="stop4911" offset=".472" stop-color="#FFF"/><stop id="stop4913" offset="1" stop-color="#000"/></linearGradient><radialGradient id="XMLID_17_" cx="123.287" cy="368.513" r="109.83" gradientUnits="userSpaceOnUse"><stop id="stop6468" offset=".364" stop-color="#ff2f00" stop-opacity="1"/><stop id="stop6470" offset=".498" stop-color="#fff" stop-opacity="1"/><stop id="stop6472" offset=".557" stop-color="#ffb700" stop-opacity="1"/><stop id="stop6474" offset=".619" stop-color="#f80" stop-opacity="1"/><stop id="stop6476" offset=".738" stop-color="#f30" stop-opacity="1"/><stop id="stop6478" offset=".791" stop-color="#f10" stop-opacity="1"/><stop id="stop6480" offset=".941" stop-color="#7c0000" stop-opacity="1"/><stop id="stop6482" offset="1" stop-color="#eb0000" stop-opacity="1"/><stop id="stop4924" offset=".364" stop-color="#FF2F00"/><stop id="stop4926" offset=".5" stop-color="#FF2F00"/><stop id="stop4928" offset=".498" stop-color="#FFF"/><stop id="stop4930" offset=".5" stop-color="#FFF"/><stop id="stop4932" offset=".557" stop-color="#FFB700"/><stop id="stop4934" offset=".472" stop-color="#FFB700"/><stop id="stop4936" offset=".791" stop-color="#F10"/><stop id="stop4938" offset=".5" stop-color="#F10"/><stop id="stop4940" offset=".941" stop-color="#7C0000"/><stop id="stop4942" offset=".5" stop-color="#7C0000"/><stop id="stop4944" offset="1" stop-color="#EB0000"/></radialGradient><radialGradient id="XMLID_16_" cx="366.831" cy="-320.261" r="210.149" gradientTransform="matrix(-0.4079,-0.7171,0.8246,-2.35e-2,566.168,534.4017)" gradientUnits="userSpaceOnUse"><stop id="stop6449" offset=".364" stop-color="#ff2f00" stop-opacity="1"/><stop id="stop6451" offset=".498" stop-color="#fff" stop-opacity="1"/><stop id="stop6453" offset=".557" stop-color="#ffb700" stop-opacity="1"/><stop id="stop6455" offset=".619" stop-color="#f80" stop-opacity="1"/><stop id="stop6457" offset=".738" stop-color="#f30" stop-opacity="1"/><stop id="stop6459" offset=".791" stop-color="#f10" stop-opacity="1"/><stop id="stop6461" offset=".941" stop-color="#7c0000" stop-opacity="1"/><stop id="stop6463" offset="1" stop-color="#eb0000" stop-opacity="1"/><stop id="stop4955" offset=".364" stop-color="#FF2F00"/><stop id="stop4957" offset=".5" stop-color="#FF2F00"/><stop id="stop4959" offset=".498" stop-color="#FFF"/><stop id="stop4961" offset=".5" stop-color="#FFF"/><stop id="stop4963" offset=".557" stop-color="#FFB700"/><stop id="stop4965" offset=".472" stop-color="#FFB700"/><stop id="stop4967" offset=".791" stop-color="#F10"/><stop id="stop4969" offset=".5" stop-color="#F10"/><stop id="stop4971" offset=".941" stop-color="#7C0000"/><stop id="stop4973" offset=".5" stop-color="#7C0000"/><stop id="stop4975" offset="1" stop-color="#EB0000"/></radialGradient><radialGradient id="XMLID_14_" cx="-189.134" cy="583.334" r="68.882" gradientTransform="matrix(-1,0,0,-1,-36.5273,1049.0723)" gradientUnits="userSpaceOnUse"><stop id="stop6423" offset="0" stop-color="red" stop-opacity="1"/><stop id="stop6425" offset=".477" stop-color="#ff7a00" stop-opacity="1"/><stop id="stop6427" offset=".837" stop-color="#ffd000" stop-opacity="1"/><stop id="stop6429" offset="1" stop-color="#fff200" stop-opacity="1"/><stop id="stop4982" offset="0" stop-color="red"/><stop id="stop4984" offset=".472" stop-color="red"/><stop id="stop4986" offset="1" stop-color="#FFF200"/></radialGradient><linearGradient id="XMLID_13_" x1="760.798" x2="907.092" y1="323.019" y2="323.019" gradientTransform="matrix(-1,0,0,-1,984.5117,788.3438)" gradientUnits="userSpaceOnUse"><stop id="stop6404" offset=".083" stop-color="#fff" stop-opacity="1"/><stop id="stop6406" offset=".543" stop-color="#787878" stop-opacity="1"/><stop id="stop6408" offset=".858" stop-color="#222" stop-opacity="1"/><stop id="stop6410" offset="1" stop-color="#000" stop-opacity="1"/><stop id="stop4993" offset=".083" stop-color="#FFF"/><stop id="stop4995" offset=".472" stop-color="#FFF"/><stop id="stop4997" offset="1" stop-color="#000"/></linearGradient><linearGradient id="XMLID_12_" x1="76.468" x2="222.761" y1="463.897" y2="463.897" gradientUnits="userSpaceOnUse"><stop id="stop6393" offset=".083" stop-color="#fff" stop-opacity="1"/><stop id="stop6395" offset=".543" stop-color="#787878" stop-opacity="1"/><stop id="stop6397" offset=".858" stop-color="#222" stop-opacity="1"/><stop id="stop6399" offset="1" stop-color="#000" stop-opacity="1"/><stop id="stop5004" offset=".083" stop-color="#FFF"/><stop id="stop5006" offset=".472" stop-color="#FFF"/><stop id="stop5008" offset="1" stop-color="#000"/></linearGradient><radialGradient id="XMLID_11_" cx="128.26" cy="436.341" r="126.657" gradientUnits="userSpaceOnUse"><stop id="stop6380" offset="0" stop-color="red" stop-opacity="1"/><stop id="stop6382" offset=".113" stop-color="#e20000" stop-opacity="1"/><stop id="stop6384" offset=".456" stop-color="#8d0000" stop-opacity="1"/><stop id="stop6386" offset=".612" stop-color="#6b0000" stop-opacity="1"/><stop id="stop6388" offset=".952" stop-color="red" stop-opacity="1"/><stop id="stop5016" offset="0" stop-color="red"/><stop id="stop5018" offset=".472" stop-color="red"/><stop id="stop5020" offset=".612" stop-color="#6B0000"/><stop id="stop5022" offset=".5" stop-color="#6B0000"/><stop id="stop5024" offset=".953" stop-color="red"/></radialGradient><radialGradient id="XMLID_10_" cx="149.488" cy="541.006" r="153.446" gradientUnits="userSpaceOnUse"><stop id="stop6373" offset="0" stop-color="#000" stop-opacity="1"/><stop id="stop6375" offset="1" stop-color="#fff" stop-opacity="1"/><stop id="stop5029" offset="0" stop-color="#000"/><stop id="stop5031" offset=".5" stop-color="#000"/><stop id="stop5033" offset="1" stop-color="#FFF"/></radialGradient><linearGradient id="XMLID_9_" x1="112.84" x2="95.687" y1="391.897" y2="410.955" gradientUnits="userSpaceOnUse"><stop id="stop6360" offset=".083" stop-color="#fff" stop-opacity="1"/><stop id="stop6362" offset=".543" stop-color="#787878" stop-opacity="1"/><stop id="stop6364" offset=".858" stop-color="#222" stop-opacity="1"/><stop id="stop6366" offset="1" stop-color="#000" stop-opacity="1"/><stop id="stop5040" offset=".083" stop-color="#FFF"/><stop id="stop5042" offset=".472" stop-color="#FFF"/><stop id="stop5044" offset="1" stop-color="#000"/></linearGradient><linearGradient id="XMLID_7_" x1="371.673" x2="364.05" y1="423.005" y2="418.241" gradientTransform="matrix(-1,0,0,1,448.9189,0)" gradientUnits="userSpaceOnUse"><stop id="stop6347" offset=".083" stop-color="#fff" stop-opacity="1"/><stop id="stop6349" offset=".543" stop-color="#787878" stop-opacity="1"/><stop id="stop6351" offset=".858" stop-color="#222" stop-opacity="1"/><stop id="stop6353" offset="1" stop-color="#000" stop-opacity="1"/><stop id="stop5051" offset=".083" stop-color="#FFF"/><stop id="stop5053" offset=".472" stop-color="#FFF"/><stop id="stop5055" offset="1" stop-color="#000"/></linearGradient><linearGradient id="XMLID_6_" x1="236.891" x2="285.298" y1="405.294" y2="405.294" gradientTransform="matrix(-1,0,0,1,362.6035,0)" gradientUnits="userSpaceOnUse"><stop id="stop6336" offset="0" stop-color="#fff" stop-opacity="1"/><stop id="stop6338" offset=".502" stop-color="#787878" stop-opacity="1"/><stop id="stop6340" offset=".845" stop-color="#222" stop-opacity="1"/><stop id="stop6342" offset="1" stop-color="#000" stop-opacity="1"/><stop id="stop5062" offset="0" stop-color="#FFF"/><stop id="stop5064" offset=".472" stop-color="#FFF"/><stop id="stop5066" offset="1" stop-color="#000"/></linearGradient><radialGradient id="XMLID_5_" cx="252.873" cy="368.513" r="109.829" gradientTransform="matrix(-1,0,0,1,430,0)" gradientUnits="userSpaceOnUse"><stop id="stop6317" offset=".364" stop-color="#ff2f00" stop-opacity="1"/><stop id="stop6319" offset=".498" stop-color="#fff" stop-opacity="1"/><stop id="stop6321" offset=".557" stop-color="#ffb700" stop-opacity="1"/><stop id="stop6323" offset=".619" stop-color="#f80" stop-opacity="1"/><stop id="stop6325" offset=".738" stop-color="#f30" stop-opacity="1"/><stop id="stop6327" offset=".791" stop-color="#f10" stop-opacity="1"/><stop id="stop6329" offset=".941" stop-color="#7c0000" stop-opacity="1"/><stop id="stop6331" offset="1" stop-color="#eb0000" stop-opacity="1"/><stop id="stop5077" offset=".364" stop-color="#FF2F00"/><stop id="stop5079" offset=".5" stop-color="#FF2F00"/><stop id="stop5081" offset=".498" stop-color="#FFF"/><stop id="stop5083" offset=".5" stop-color="#FFF"/><stop id="stop5085" offset=".557" stop-color="#FFB700"/><stop id="stop5087" offset=".472" stop-color="#FFB700"/><stop id="stop5089" offset=".791" stop-color="#F10"/><stop id="stop5091" offset=".5" stop-color="#F10"/><stop id="stop5093" offset=".941" stop-color="#7C0000"/><stop id="stop5095" offset=".5" stop-color="#7C0000"/><stop id="stop5097" offset="1" stop-color="#EB0000"/></radialGradient><mask id="XMLID_174_"><g id="g6268" filter="url(#Adobe_OpacityMaskFilter_1_)"><radialGradient id="XMLID_1_" cx="876.825" cy="185.777" r="101.168" gradientTransform="matrix(0.869,0,0,1,13.3735,0)" gradientUnits="userSpaceOnUse"><stop id="stop6271" offset="0" stop-color="#fff" stop-opacity="1"/><stop id="stop6273" offset="1" stop-color="#000" stop-opacity="1"/><stop id="stop5104" offset="0" stop-color="#FFF"/><stop id="stop5106" offset=".5" stop-color="#FFF"/><stop id="stop5108" offset="1" stop-color="#000"/></radialGradient><rect id="rect6275" width="173.926" height="159.154" x="724.826" y="49.016" fill="url(#XMLID_1_)"/></g></mask><mask id="XMLID_145_"><g id="g5942" filter="url(#Adobe_OpacityMaskFilter)"><radialGradient id="XMLID_146_" cx="92.015" cy="231.777" r="101.168" gradientTransform="matrix(0.869,0,0,1,13.3735,0)" gradientUnits="userSpaceOnUse"><stop id="stop5945" offset="0" stop-color="#fff" stop-opacity="1"/><stop id="stop5947" offset="1" stop-color="#000" stop-opacity="1"/><stop id="stop5116" offset="0" stop-color="#FFF"/><stop id="stop5118" offset=".5" stop-color="#FFF"/><stop id="stop5120" offset="1" stop-color="#000"/></radialGradient><rect id="rect5949" width="173.926" height="159.154" x="42.826" y="95.016" fill="url(#XMLID_146_)"/></g></mask><filter id="filter2389" y="-.2"><feBlend id="feBlend2391" in2="BackgroundImage" mode="screen" result="result1"/><feBlend id="feBlend3189" in="SourceGraphic" in2="BackgroundImage" mode="multiply" result="result2"/><feComposite id="feComposite3187" in="result1" in2="BackgroundImage" k1="1" operator="arithmetic" result="result4"/><feColorMatrix id="feColorMatrix3201" in="BackgroundImage" result="result5" values="-1 0 0 0 1 0 -1 0 0 1 0 0 -1 0 1 0 0 0 1 0"/><feComposite id="feComposite3205" in="result5" in2="result2" k1="1" operator="arithmetic"/><feComposite id="feComposite3233" in2="result4" k2="1" k3="1" operator="arithmetic"/></filter><filter id="filter13329" y="-.2"><feBlend id="feBlend13331" in2="BackgroundImage" mode="screen"/></filter><filter id="filter13333"><feBlend id="feBlend13335" in2="BackgroundImage" mode="multiply"/></filter><filter id="filter13851"><feGaussianBlur id="feGaussianBlur13853" stdDeviation="4.558"/></filter><filter id="filter4852" width="1.752" height="1.499" x="-.376" y="-.25"><feGaussianBlur id="feGaussianBlur4854" stdDeviation="5.731"/></filter><radialGradient id="radialGradient3534" cx="0" cy="0" r="1" fx="0" fy="0" gradientTransform="matrix(87.891121,0,0,101.14053,195.47308,221.65711)" gradientUnits="userSpaceOnUse" spreadMethod="pad" xlink:href="#radialGradient5466"/><mask id="mask3530"><path id="path3532" fill="url(#radialGradient3534)" stroke="none" d="M 318.85776,244.04313 L 144.97884,244.04313 L 144.97884,84.93312 L 318.85776,84.93312 L 318.85776,244.04313 z"/></mask><filter id="filter12588" width="1.163" height="1.319" x="-.082" y="-.16"><feGaussianBlur id="feGaussianBlur12590" stdDeviation="4.39"/><feBlend id="feBlend12592" in2="BackgroundImage" mode="screen"/></filter><mask id="mask13128"><path id="path13130" fill="#fff" d="M -455.93146,477.17319 C -458.40783,477.18719 -460.43005,477.76553 -461.77521,479.11069 C -467.58074,484.91622 -459.24057,503.40441 -451.99396,516.01694 C -458.30604,526.9855 -461.93146,539.71163 -461.93146,553.26694 C -461.93146,594.56372 -428.41575,628.07944 -387.11896,628.07944 C -345.82218,628.07944 -312.30646,594.56371 -312.30646,553.26694 C -312.30646,539.6223 -315.97948,526.8158 -322.36896,515.79819 C -315.15097,503.19145 -306.94003,484.88337 -312.71271,479.11069 C -312.83648,478.98692 -312.95259,478.87798 -313.08771,478.76694 C -313.09878,478.75906 -313.10776,478.74344 -313.11896,478.73569 C -319.30451,473.73842 -336.96556,481.69772 -349.27521,488.73569 C -360.38215,482.20267 -373.3098,478.45444 -387.11896,478.45444 C -399.7601,478.45444 -411.67405,481.59915 -422.11896,487.14194 C -418.6259,484.91287 -414.9298,482.99769 -411.05646,481.42319 C -416.17236,483.25204 -420.99566,485.65675 -425.49396,488.57944 C -435.1232,483.09965 -447.8835,477.1277 -455.93146,477.17319 z"/></mask><radialGradient id="radialGradient13172" cx="252.873" cy="368.513" r="109.829" gradientTransform="matrix(-1,0,0,1,-107.44504,88.64546)" gradientUnits="userSpaceOnUse" xlink:href="#XMLID_5_"/><linearGradient id="linearGradient13174" x1="236.891" x2="285.298" y1="405.294" y2="405.294" gradientTransform="matrix(-1,0,0,1,-174.84154,88.64546)" gradientUnits="userSpaceOnUse" xlink:href="#XMLID_6_"/><linearGradient id="linearGradient13176" x1="371.673" x2="364.05" y1="423.005" y2="418.241" gradientTransform="matrix(-1,0,0,1,-88.52614,88.64546)" gradientUnits="userSpaceOnUse" xlink:href="#XMLID_7_"/><linearGradient id="linearGradient13180" x1="112.84" x2="95.687" y1="391.897" y2="410.955" gradientTransform="translate(-537.44504,88.6455)" gradientUnits="userSpaceOnUse" xlink:href="#XMLID_9_"/><radialGradient id="radialGradient13182" cx="149.488" cy="541.006" r="153.446" gradientUnits="userSpaceOnUse" xlink:href="#XMLID_10_"/><radialGradient id="radialGradient13184" cx="128.26" cy="436.341" r="126.657" gradientUnits="userSpaceOnUse" xlink:href="#XMLID_11_"/><linearGradient id="linearGradient13186" x1="76.468" x2="222.761" y1="463.897" y2="463.897" gradientTransform="translate(-537.44504,88.6455)" gradientUnits="userSpaceOnUse" xlink:href="#XMLID_12_"/><linearGradient id="linearGradient13188" x1="760.798" x2="907.092" y1="323.019" y2="323.019" gradientTransform="matrix(-1,0,0,-1,447.0667,876.9893)" gradientUnits="userSpaceOnUse" xlink:href="#XMLID_13_"/><linearGradient id="linearGradient13190" x1="150.564" x2="150.564" y1="392.512" y2="468.356" gradientTransform="translate(-537.44504,88.6455)" gradientUnits="userSpaceOnUse" xlink:href="#XMLID_15_"/><radialGradient id="radialGradient13192" cx="-189.134" cy="583.334" r="68.882" gradientTransform="matrix(-1,0,0,-1,-36.5273,1049.0723)" gradientUnits="userSpaceOnUse" xlink:href="#XMLID_14_"/><radialGradient id="radialGradient13196" cx="366.831" cy="-320.261" r="210.149" gradientTransform="matrix(-0.4079,-0.7171,0.8246,-0.0235,28.72296,623.0472)" gradientUnits="userSpaceOnUse" xlink:href="#XMLID_16_"/><radialGradient id="radialGradient13198" cx="123.287" cy="368.513" r="109.83" gradientTransform="translate(-537.44504,88.6455)" gradientUnits="userSpaceOnUse" xlink:href="#XMLID_17_"/><linearGradient id="linearGradient13200" x1="182.379" x2="204.3" y1="395.214" y2="410.94" gradientTransform="translate(-537.44504,88.6455)" gradientUnits="userSpaceOnUse" xlink:href="#XMLID_18_"/><linearGradient id="linearGradient13204" x1="175.943" x2="224.35" y1="405.294" y2="405.294" gradientTransform="translate(-537.44504,88.6455)" gradientUnits="userSpaceOnUse" xlink:href="#XMLID_20_"/><radialGradient id="radialGradient13206" cx="170.938" cy="406.631" r="53.576" gradientTransform="translate(-537.44504,88.6455)" gradientUnits="userSpaceOnUse" xlink:href="#XMLID_21_"/><radialGradient id="radialGradient13208" cx="167.124" cy="407.109" r="19.206" gradientTransform="translate(-537.44504,88.6455)" gradientUnits="userSpaceOnUse" xlink:href="#XMLID_22_"/><linearGradient id="linearGradient13210" x1="260.401" x2="190.754" y1="366.79" y2="442.886" gradientTransform="translate(-537.44504,88.6455)" gradientUnits="userSpaceOnUse" xlink:href="#XMLID_23_"/><radialGradient id="radialGradient13212" cx="1770.705" cy="245.728" r="15.604" gradientTransform="matrix(0.1133,0.1847,-0.8524,0.5229,-322.94644,32.1927)" gradientUnits="userSpaceOnUse" xlink:href="#XMLID_24_"/><radialGradient id="radialGradient13214" cx="289.676" cy="288.772" r="15.604" gradientTransform="matrix(0.1206,-0.18,0.6605,0.4425,-670.17624,410.4799)" gradientUnits="userSpaceOnUse" xlink:href="#XMLID_25_"/><radialGradient id="radialGradient13216" cx="214.694" cy="446.043" r="15.605" gradientTransform="matrix(0.6946,0.6025,-0.9942,1.1461,-134.10274,-121.548)" gradientUnits="userSpaceOnUse" xlink:href="#XMLID_26_"/><radialGradient id="radialGradient13218" cx="180.82" cy="448.822" r="10.715" gradientTransform="matrix(0.8176,0.4207,-0.6942,1.3491,-273.27764,-145.8827)" gradientUnits="userSpaceOnUse" xlink:href="#XMLID_27_"/><linearGradient id="linearGradient13220" x1="334.9" x2="444.504" y1="517.115" y2="617.799" gradientTransform="matrix(0,1,-1,0,189.96906,153.5635)" gradientUnits="userSpaceOnUse" xlink:href="#XMLID_28_"/><radialGradient id="radialGradient13222" cx="3.329" cy=".078" r="1" fx="3.329" fy=".078" gradientTransform="matrix(2.5966058e-6,-120.92754,-118.99999,-2.5552166e-6,215.57752,544.23804)" gradientUnits="userSpaceOnUse" spreadMethod="pad" xlink:href="#radialGradient5510"/><radialGradient id="radialGradient13224" cx="428.627" cy="505.022" r="34.047" gradientTransform="matrix(0.5251,0.8511,-1.1214,0.6919,-14.76734,-208.9433)" gradientUnits="userSpaceOnUse" xlink:href="#XMLID_32_"/><linearGradient id="linearGradient13226" x1="219.559" x2="213.365" y1="421.217" y2="416.928" gradientTransform="translate(-537.44504,88.6455)" gradientUnits="userSpaceOnUse" xlink:href="#XMLID_33_"/><linearGradient id="linearGradient5618" x1="371.673" x2="364.05" y1="423.005" y2="418.241" gradientTransform="matrix(-1,0,0,1,-88.52614,88.64546)" gradientUnits="userSpaceOnUse" xlink:href="#XMLID_7_"/><linearGradient id="linearGradient5620" x1="150.564" x2="150.564" y1="392.512" y2="468.356" gradientTransform="translate(-537.44504,88.6455)" gradientUnits="userSpaceOnUse" xlink:href="#XMLID_15_"/><linearGradient id="linearGradient5622" x1="182.379" x2="204.3" y1="395.214" y2="410.94" gradientTransform="translate(-537.44504,88.6455)" gradientUnits="userSpaceOnUse" xlink:href="#XMLID_18_"/></defs><metadata id="metadata5458"/><g id="layer1" transform="translate(-384.57143,-483.798)"><g style="enable-background:new" id="g5564" transform="matrix(0.38137914,0,0,0.38137914,377.27412,475.90417)"><g style="display:inline" id="layer1-2" transform="translate(-129.25604,-222.17319)"><g id="g13132" transform="translate(619.74108,-219.60899)"><path id="path12441" stroke="none;display:inline" d="m -456.13104,476.64002 c -2.47637,0.014 -4.49859,0.62359 -5.84375,1.96875 -5.80552,5.80552 2.53464,24.26247 9.78125,36.875 -6.31875,10.97281 -9.9375,23.68698 -9.9375,37.25 0,41.29678 33.51573,74.8125 74.8125,74.8125 41.29678,0 74.81249,-33.51572 74.8125,-74.8125 0,-13.65576 -3.69462,-26.44506 -10.09375,-37.46875 7.21979,-12.60715 15.46218,-30.88156 9.6875,-36.65625 -5.759,-5.759 -23.95875,2.41969 -36.5625,9.625 -11.10785,-6.5345 -24.0329,-10.3125 -37.84375,-10.3125 -13.86068,0 -26.8341,3.79676 -37.96875,10.375 -9.67255,-5.54124 -22.68266,-11.70237 -30.84375,-11.65625 z" style="fill:#000;filter:url(#filter13851)"/><g id="g13090" mask="url(#mask13128)"><path id="path6420" d="m -461.77604,479.11146 c -8.609,8.609 13.938,45.116 17.8,48.978 3.862,3.86 13.973,0.013 22.581,-8.597 8.609,-8.609 12.458,-18.719 8.596,-22.581 -3.862,-3.862 -40.368,-26.409 -48.977,-17.8 z" style="fill:url(#radialGradient13172)"/><path id="path10879" d="m -414.66204,509.85646 c -16.118,-14.657 -37.349,-31.825 -45.478,-31.096 5.954,-4.238 29.714,10.573 48.407,23.952 -0.43,2.157 -1.433,4.607 -2.929,7.144 z" style="fill:url(#linearGradient13174);filter:url(#filter13329)"/><path id="path6442" d="m -461.10804,480.05946 c -8.28,8.28 13.405,43.392 17.121,47.106 3.714,3.714 13.438,0.013 21.718,-8.268 8.28,-8.281 11.981,-18.004 8.268,-21.718 -3.715,-3.715 -38.827,-25.401 -47.107,-17.12 z" style="fill:url(#linearGradient5618);filter:url(#filter13329)"/><path style="fill:url(#linearGradient13176);filter:url(#filter13329)" id="path6444" d="m -461.10804,480.05946 c -8.28,8.28 13.405,43.392 17.121,47.106 3.714,3.714 13.438,0.013 21.718,-8.268 8.28,-8.281 11.981,-18.004 8.268,-21.718 -3.715,-3.715 -38.827,-25.401 -47.107,-17.12 z"/><path id="path6455" d="m -461.10804,480.05946 c -8.28,8.28 13.405,43.392 17.121,47.106 3.714,3.714 13.438,0.013 21.718,-8.268 8.28,-8.281 11.981,-18.004 8.268,-21.718 -3.715,-3.715 -38.827,-25.401 -47.107,-17.12 z" style="fill:url(#linearGradient13180);filter:url(#filter13329)"/><circle id="circle6464" cx="150.326" cy="464.608" r="74.813" transform="translate(-537.44504,88.6455)" style="fill:url(#radialGradient13182)"/><circle id="circle6477" cx="150.088" cy="466.276" r="71.238" transform="translate(-537.44504,88.6455)" style="fill:url(#radialGradient13184)"/><path id="path6488" d="m -455.07204,555.9465 c 0,-39.017 31.629,-70.646 70.646,-70.646 35.169,0 64.332,25.7 69.742,59.345 -4.042,-36.699 -35.146,-65.251 -72.922,-65.251 -40.521,0 -73.371,32.851 -73.371,73.372 0,37.776 28.551,68.881 65.25,72.922 -33.644,-5.41 -59.345,-34.572 -59.345,-69.742 z" style="fill:url(#linearGradient13186);filter:url(#filter13329)"/><path id="path6499" d="m -319.63704,550.5655 c 0,39.018 -31.629,70.646 -70.646,70.646 -35.169,0 -64.331,-25.699 -69.742,-59.344 4.043,36.699 35.146,65.25 72.922,65.25 40.522,0 73.372,-32.85 73.372,-73.372 0,-37.776 -28.551,-68.88 -65.25,-72.922 33.643,5.411 59.344,34.574 59.344,69.742 z" style="opacity:.62999998;fill:url(#linearGradient13188);filter:url(#filter13329)"/><path id="path12457" d="m -322.31404,535.7025 c 0,29.519 -19.417,-34.706 -83.27,-10.404 -24.457,9.309 -45.864,39.923 -45.864,10.404 0,-29.519 28.908,-53.449 64.567,-53.449 35.659,0 64.567,23.93 64.567,53.449 z" style="fill:url(#linearGradient5620);filter:url(#filter12588)"/><g id="g6505" transform="translate(-537.44504,88.6455)" style="filter:url(#filter2389)"><g id="g6507"><radialGradient id="radialGradient10935" cx="-189.134" cy="583.334" r="68.882" gradientTransform="matrix(-1,0,0,-1,-36.5273,1049.0723)" gradientUnits="userSpaceOnUse"><stop id="stop6510" offset="0" stop-color="red" stop-opacity="1"/><stop id="stop6512" offset=".477" stop-color="#ff7a00" stop-opacity="1"/><stop id="stop6514" offset=".837" stop-color="#ffd000" stop-opacity="1"/><stop id="stop6516" offset="1" stop-color="#fff200" stop-opacity="1"/><stop id="stop5204" offset="0" stop-color="red"/><stop id="stop5206" offset=".472" stop-color="red"/><stop id="stop5208" offset="1" stop-color="#FFF200"/></radialGradient><path id="path6518" d="m 130.019,419.919 c -0.583,3.886 3.286,9.258 5.491,2.343 2.205,-6.915 2.285,-16.017 10.503,-20.161 8.218,-4.143 14.857,-4.783 21.817,-2.104 4.781,1.841 7.346,4.121 8.483,5.369 -3.027,-3.572 -15.199,-15.918 -32.044,-6.449 -19.526,10.979 -13.646,-2.513 -15.549,12.509 -1.902,15.025 1.299,8.493 1.299,8.493 z m 46.294,-14.553 c 0.482,0.568 0.741,0.923 0.741,0.923 0,0 -0.222,-0.355 -0.741,-0.923 z m -0.79,9.73 c -19.188,-3.446 -42.767,8.591 -59.279,28.939 6.613,-11.488 0.193,-29.824 -0.483,-27.889 -9.648,27.575 -24.63,27.387 -28.48,36.193 -5.09,11.642 -0.54,25.504 10.157,31.132 -5.315,28.211 21.354,47.366 37.752,47.366 16.555,0 2.899,-23.115 2.899,-47.451 0,-24.334 -2.382,-54.322 37.434,-68.29 z m 43.573,42.558 c -4.765,-21.443 -10.96,-29.545 -10.96,-29.545 0,0 10.483,20.49 7.625,39.074 -2.859,18.585 -14.811,19.574 -15.249,24.303 -0.438,4.729 4.289,5.719 8.102,3.336 -0.001,0 15.246,-15.726 10.482,-37.168 z m -16.235,-1.941 c -32.402,13.818 -37.363,17.432 -47.65,28.115 -12.39,12.865 -11.615,35.711 -5.091,45.117 6.524,9.41 21.176,9.494 32.723,0.189 16.729,-13.477 -8.095,-40.541 20.018,-73.421 z" style="fill:url(#radialGradient13192)"/></g></g><path style="fill:url(#linearGradient13190);filter:url(#filter13329)" id="path6529" d="m -322.31404,535.7025 c 0,29.519 -19.417,-34.706 -83.27,-10.404 -24.457,9.309 -45.864,39.923 -45.864,10.404 0,-29.519 28.908,-53.449 64.567,-53.449 35.659,0 64.567,23.93 64.567,53.449 z"/><path id="path12630" d="m -320.55652,557.0003 c -3.97603,0.6272 -8.98781,-13.3111 -13.84526,-18.9079 -9.22102,-10.6247 -33.06046,-20.9166 -15.83997,-33.2858 16.98645,-12.201 23.82891,9.5302 28.90389,29.2424 1.87669,7.2894 4.75737,22.3241 0.78134,22.9513 z" style="opacity:.43999999;fill:#000;fill-opacity:1;fill-rule:evenodd;stroke:none;stroke-width:1px;stroke-linecap:butt;stroke-linejoin:miter;stroke-opacity:1;filter:url(#filter4852)"/><path id="path6552" d="m -382.90704,486.6415 c 4.976,-4.976 34.505,4.824 45.828,11.168 4.583,2.566 5.491,9.636 2.04,15.768 -3.45,6.133 -11.332,10.601 -14.537,6.439 -19.793,-25.691 -35.884,-30.822 -33.331,-33.375 z" style="opacity:.15;fill:url(#radialGradient13196)"/><path id="path6571" d="m -312.69904,479.1115 c 8.609,8.609 -13.938,45.116 -17.801,48.978 -3.861,3.86 -13.972,0.013 -22.581,-8.597 -8.609,-8.61 -12.458,-18.719 -8.596,-22.581 3.862,-3.862 40.369,-26.409 48.978,-17.8 z" style="fill:url(#radialGradient13198)"/><path id="path6582" d="m -313.40804,480.0595 c 8.28,8.28 -13.406,43.392 -17.12,47.106 -3.715,3.714 -13.438,0.013 -21.719,-8.268 -8.281,-8.28 -11.981,-18.004 -8.268,-21.718 3.715,-3.715 38.827,-25.401 47.107,-17.12 z" style="fill:url(#linearGradient5622);filter:url(#filter13329)"/><path style="fill:url(#linearGradient13200);filter:url(#filter13329)" id="path6584" d="m -313.40804,480.0595 c 8.28,8.28 -13.406,43.392 -17.12,47.106 -3.715,3.714 -13.438,0.013 -21.719,-8.268 -8.281,-8.28 -11.981,-18.004 -8.268,-21.718 3.715,-3.715 38.827,-25.401 47.107,-17.12 z"/><path id="path6595" d="m -358.57304,509.8565 c 16.118,-14.657 37.348,-31.825 45.478,-31.096 -5.955,-4.238 -29.714,10.573 -48.406,23.952 0.429,2.157 1.432,4.607 2.928,7.144 z" style="fill:url(#linearGradient13204);filter:url(#filter13329)"/><path id="path6602" d="m -330.50004,528.0895 c -3.861,3.86 -13.972,0.013 -22.581,-8.597 -8.609,-8.61 -12.458,-18.719 -8.596,-22.581 0.847,-0.846 3.262,-2.591 6.606,-4.708 -4.957,-1.985 -9.123,-2.102 -11.355,0.132 -4.56,4.56 0.651,17.162 11.639,28.149 10.987,10.986 23.59,16.197 28.149,11.639 2.057,-2.058 2.119,-5.756 0.564,-10.201 -1.988,3.116 -3.617,5.358 -4.426,6.167 z" style="fill:url(#radialGradient13206);filter:url(#filter13333)"/><path id="path6609" d="m -362.99904,510.4265 2.673,-0.344 c -1.617,-2.901 -2.591,-5.664 -2.805,-7.997 l -4.271,-0.821 c 0.804,2.784 2.307,5.918 4.403,9.162 z" style="fill:url(#radialGradient13208)"/><path id="path6620" d="m -329.81904,511.0025 c -6.671,8.577 -10.006,6.195 -19.749,10.371 7.6,6.503 15.72,9.111 19.04,5.791 0.88,-0.881 2.773,-3.531 5.037,-7.168 1.504,-3.1 3.095,-6.304 4.727,-9.471 8.099,-15.724 -3.846,-6.219 -9.055,0.477 z" style="opacity:.52999998;fill:url(#linearGradient13210);filter:url(#filter13333)"/><path id="path6629" d="m -329.75904,491.0335 c -8.412,5.161 -16.139,7.867 -17.256,6.044 -1.119,-1.823 4.795,-7.483 13.207,-12.644 8.412,-5.16 16.139,-7.866 17.256,-6.044 1.118,1.823 -4.795,7.484 -13.207,12.644 z" style="fill:url(#radialGradient13212);filter:url(#filter13329)"/><path id="path6638" d="m -442.35404,482.9025 c 6.52,4.367 10.839,9.347 9.648,11.124 -1.19,1.777 -7.439,-0.323 -13.957,-4.69 -6.519,-4.367 -10.839,-9.346 -9.647,-11.123 1.188,-1.777 7.438,0.324 13.956,4.689 z" style="fill:url(#radialGradient13214);filter:url(#filter13329)"/><path id="path6647" d="m -416.02104,529.7815 c -9.812,11.312 -23.322,15.661 -30.178,9.714 -6.855,-5.946 -4.458,-19.936 5.354,-31.246 9.811,-11.312 23.321,-15.661 30.177,-9.715 6.855,5.946 4.457,19.936 -5.353,31.247 z" style="fill:url(#radialGradient13216);filter:url(#filter13329)"/><path id="path6656" d="m -426.97804,540.8545 c -4.704,9.143 -13.009,14.242 -18.55,11.393 -5.54,-2.852 -6.219,-12.574 -1.515,-21.717 4.703,-9.141 13.008,-14.241 18.549,-11.391 5.541,2.85 6.219,12.574 1.516,21.715 z" style="fill:url(#radialGradient13218);filter:url(#filter13329)"/><path id="path6673" d="m -314.69004,553.4935 c 0,-6.146 -0.77,-12.109 -2.214,-17.805 0.046,0.926 0.069,1.857 0.069,2.793 0,30.396 -24.641,55.037 -55.036,55.037 -30.396,0 -55.038,-24.641 -55.038,-55.037 0,-30.396 24.642,-55.037 55.038,-55.037 0.936,0 1.867,0.024 2.791,0.07 -5.693,-1.445 -11.657,-2.215 -17.802,-2.215 -39.87,0 -72.191,32.322 -72.191,72.193 0,39.869 32.321,72.19 72.191,72.19 39.872,10e-4 72.192,-32.32 72.192,-72.189 z" style="fill:url(#linearGradient13220);filter:url(#filter13329)"/><path style="display:inline;overflow:visible;visibility:visible;fill:url(#radialGradient13222);fill-opacity:1;fill-rule:nonzero;stroke:none;stroke-width:.99972361;stroke-linecap:butt;stroke-linejoin:miter;stroke-miterlimit:4;stroke-dasharray:none;stroke-dashoffset:0;stroke-opacity:1;marker-start:none;marker-mid:none;marker-end:none" id="path12862" stroke-miterlimit="4" d="m 234.24563,238.08777 c -38.29842,0 -69.34483,-31.68624 -69.34483,-70.77143 0,-29.83875 18.09599,-55.36169 43.69792,-65.76882 -27.40343,9.7963 -47.05799,36.41794 -47.05799,67.72728 0,39.62804 31.47729,71.75116 70.30456,71.75116 25.17704,0 47.26093,-13.50926 59.6775,-33.81165 -12.48855,18.63885 -33.48174,30.87346 -57.27716,30.87346" mask="url(#mask3530)" transform="translate(-619.6413,379.8728)"/><path id="path6708" d="m -341.25804,505.5565 c -7.673,4.735 -15.91,5.304 -18.397,1.272 -2.487,-4.032 1.717,-11.138 9.39,-15.872 7.674,-4.735 30.338,-14.205 32.825,-10.174 2.486,4.032 -16.146,20.041 -23.818,24.774 z" style="fill:url(#radialGradient13224);filter:url(#filter13329)"/><path id="path6719" d="m -312.16104,481.0525 c -1.493,8.675 -6.471,17.226 -14.515,23.457 -9.342,7.238 -20.683,9.694 -30.521,7.581 1.386,1.968 3.045,3.948 4.95,5.854 8.28,8.28 18.004,11.982 21.719,8.268 3.472,-3.473 22.648,-34.382 18.367,-45.16 z" style="fill:url(#linearGradient13226);filter:url(#filter13329)"/></g></g></g></g></g></svg>