<svg xmlns="http://www.w3.org/2000/svg" xmlns:svg="http://www.w3.org/2000/svg" xmlns:xlink="http://www.w3.org/1999/xlink" id="svg5453" width="64" height="64" version="1.1"><defs id="defs5455"><linearGradient id="linearGradient3816"><stop style="stop-color:#fff;stop-opacity:1" id="stop3818" offset="0"/><stop style="stop-color:#fff;stop-opacity:0" id="stop3820" offset="1"/></linearGradient><linearGradient id="linearGradient3752"><stop style="stop-color:#0e4688;stop-opacity:1" id="stop3754" offset="0"/><stop style="stop-color:#135eb7;stop-opacity:1" id="stop3756" offset="1"/></linearGradient><linearGradient id="linearGradient3733"><stop style="stop-color:#3972ac;stop-opacity:1" id="stop3735" offset="0"/><stop style="stop-color:#5b91c9;stop-opacity:1" id="stop3737" offset="1"/></linearGradient><linearGradient id="ButtonShadow" x1="45.448" x2="45.448" y1="92.54" y2="7.017" gradientTransform="scale(1.0058652,0.994169)" gradientUnits="userSpaceOnUse"><stop style="stop-color:#000;stop-opacity:1" id="stop3750" offset="0"/><stop style="stop-color:#000;stop-opacity:.58823532" id="stop3752" offset="1"/></linearGradient><linearGradient id="linearGradient3700"><stop style="stop-color:#78a1bd;stop-opacity:1" id="stop3702" offset="0"/><stop style="stop-color:#afc8d8;stop-opacity:1" id="stop3704" offset="1"/></linearGradient><filter id="filter3174" color-interpolation-filters="sRGB"><feGaussianBlur id="feGaussianBlur3176" stdDeviation="1.71"/></filter><linearGradient id="linearGradient3188" x1="36.357" x2="36.357" y1="6" y2="63.893" gradientUnits="userSpaceOnUse" xlink:href="#linearGradient3816"/><filter id="filter3794" width="1.384" height="1.384" x="-.192" y="-.192" color-interpolation-filters="sRGB"><feGaussianBlur id="feGaussianBlur3796" stdDeviation="5.28"/></filter><linearGradient id="linearGradient3613" x1="48" x2="48" y1="20.221" y2="138.661" gradientUnits="userSpaceOnUse" xlink:href="#linearGradient3816"/><radialGradient id="radialGradient3619" cx="48" cy="90.172" r="42" fx="48" fy="90.172" gradientTransform="matrix(1.1573129,0,0,0.99590774,-7.5510206,0.19713193)" gradientUnits="userSpaceOnUse" xlink:href="#linearGradient3816"/><clipPath id="clipPath3613"><rect style="fill:#fff;fill-opacity:1;fill-rule:nonzero;stroke:none" id="rect3615" width="84" height="84" x="6" y="6" rx="6" ry="6"/></clipPath><linearGradient id="linearGradient3617" x1="48" x2="48" y1="90" y2="5.988" gradientUnits="userSpaceOnUse" xlink:href="#linearGradient3700"/><linearGradient id="ButtonShadow-0" x1="45.448" x2="45.448" y1="92.54" y2="7.017" gradientTransform="matrix(1.0058652,0,0,0.994169,100,0)" gradientUnits="userSpaceOnUse"><stop style="stop-color:#000;stop-opacity:1" id="stop3750-8" offset="0"/><stop style="stop-color:#000;stop-opacity:.58823532" id="stop3752-5" offset="1"/></linearGradient><linearGradient id="linearGradient3780" x1="32.251" x2="32.251" y1="6.132" y2="90.239" gradientTransform="matrix(1.0238095,0,0,1.0119048,-1.1428571,-98.071429)" gradientUnits="userSpaceOnUse" xlink:href="#ButtonShadow-0"/><linearGradient id="linearGradient3721" x1="32.251" x2="32.251" y1="6.132" y2="90.239" gradientTransform="translate(0,-97)" gradientUnits="userSpaceOnUse" xlink:href="#ButtonShadow-0"/><linearGradient id="linearGradient3739" x1="67.07" x2="50.377" y1="64.851" y2="2.55" gradientTransform="matrix(0.95238098,0,0,0.95238098,2.7994163,1.616242)" gradientUnits="userSpaceOnUse" xlink:href="#linearGradient3733"/><linearGradient id="linearGradient3758" x1="50.035" x2="50.035" y1="72.402" y2="22.692" gradientUnits="userSpaceOnUse" xlink:href="#linearGradient3752"/><linearGradient id="linearGradient3787" x1="22.031" x2="104" y1="48" y2="48" gradientTransform="matrix(0,1,-1,0,96,0)" gradientUnits="userSpaceOnUse" xlink:href="#linearGradient3816"/><linearGradient id="linearGradient3802" x1="36" x2="36" y1="8" y2="128.599" gradientUnits="userSpaceOnUse" xlink:href="#linearGradient3816"/><linearGradient id="linearGradient4284" x1="32.251" x2="32.251" y1="6.132" y2="90.239" gradientTransform="matrix(1.0238095,0,0,1.0119048,-1.1428571,-98.071429)" gradientUnits="userSpaceOnUse" xlink:href="#ButtonShadow-0"/><linearGradient id="linearGradient4286" x1="32.251" x2="32.251" y1="6.132" y2="90.239" gradientTransform="matrix(1.0238095,0,0,1.0119048,-1.1428571,-98.071429)" gradientUnits="userSpaceOnUse" xlink:href="#ButtonShadow-0"/><linearGradient id="linearGradient4288" x1="32.251" x2="32.251" y1="6.132" y2="90.239" gradientTransform="matrix(1.0238095,0,0,1.0119048,-1.1428571,-98.071429)" gradientUnits="userSpaceOnUse" xlink:href="#ButtonShadow-0"/></defs><metadata id="metadata5458"/><g id="layer1" transform="translate(-384.57143,-483.798)"><g id="g4254" transform="matrix(0.6951799,0,0,0.702814,383.20279,481.00871)"><g style="display:none" id="layer2"><rect style="opacity:.9;fill:url(#ButtonShadow);fill-opacity:1;fill-rule:nonzero;stroke:none;filter:url(#filter3174)" id="rect3745" width="86" height="85" x="5" y="7" rx="6" ry="6"/></g><g id="layer3"><path style="display:inline;opacity:.07999998;fill:url(#linearGradient4284);fill-opacity:1;fill-rule:nonzero;stroke:none" id="path3786" d="m 12,-95.03125 c -5.5110903,0 -10.03125,4.52016 -10.03125,10.03125 l 0,71 c 0,5.5110902 4.5201598,10.03125 10.03125,10.03125 l 72,0 c 5.51109,0 10.03125,-4.5201597 10.03125,-10.03125 l 0,-71 c 0,-5.51109 -4.52016,-10.03125 -10.03125,-10.03125 l -72,0 z" transform="scale(1,-1)"/><path style="display:inline;opacity:.1;fill:url(#linearGradient4286);fill-opacity:1;fill-rule:nonzero;stroke:none" id="path3778" d="m 12,-94.03125 c -4.971633,0 -9.03125,4.059617 -9.03125,9.03125 l 0,71 c 0,4.9716329 4.0596171,9.03125 9.03125,9.03125 l 72,0 c 4.971633,0 9.03125,-4.059617 9.03125,-9.03125 l 0,-71 c 0,-4.971633 -4.059617,-9.03125 -9.03125,-9.03125 l -72,0 z" transform="scale(1,-1)"/><path style="display:inline;opacity:.2;fill:url(#linearGradient4288);fill-opacity:1;fill-rule:nonzero;stroke:none" id="path3770" d="m 12,-93 c -4.4091333,0 -8,3.590867 -8,8 l 0,71 c 0,4.4091333 3.5908667,8 8,8 l 72,0 c 4.409133,0 8,-3.5908667 8,-8 l 0,-71 c 0,-4.409133 -3.590867,-8 -8,-8 l -72,0 z" transform="scale(1,-1)"/><rect style="display:inline;opacity:.3;fill:url(#linearGradient3780);fill-opacity:1;fill-rule:nonzero;stroke:none" id="rect3723" width="86" height="85" x="5" y="-92" rx="7" ry="7" transform="scale(1,-1)"/><rect style="display:inline;opacity:.45;fill:url(#linearGradient3721);fill-opacity:1;fill-rule:nonzero;stroke:none" id="rect3716" width="84" height="84" x="6" y="-91" rx="6" ry="6" transform="scale(1,-1)"/></g><g id="layer1-1"><rect style="fill:url(#linearGradient3617);fill-opacity:1;fill-rule:nonzero;stroke:none" id="rect2419" width="84" height="84" x="6" y="6" rx="6" ry="6"/><path style="color:#000;display:inline;overflow:visible;visibility:visible;opacity:.05;fill:#000;fill-opacity:1;fill-rule:nonzero;stroke:none;stroke-width:1;marker:none;enable-background:accumulate" id="path3814" d="m 29.8125,-0.53125 c -3.390962,0 -6.1875,2.7965378 -6.1875,6.1875 l 0,58.5 c 0,3.390962 2.796538,6.1875 6.1875,6.1875 l 58.46875,0 c 3.390962,0 6.1875,-2.796538 6.1875,-6.1875 l 0,-58.5 c 0,-3.3909622 -2.796538,-6.1875 -6.1875,-6.1875 l -58.46875,0 z" transform="matrix(0.96592582,0.25881905,-0.25881905,0.96592583,0,0)"/><path style="color:#000;display:inline;overflow:visible;visibility:visible;opacity:.15;fill:#000;fill-opacity:1;fill-rule:nonzero;stroke:none;stroke-width:1;marker:none;enable-background:accumulate" id="path3810" d="m 29.8125,0.40625 c -2.88067,0 -5.25,2.3693302 -5.25,5.25 l 0,58.5 c 0,2.88067 2.36933,5.25 5.25,5.25 l 58.46875,0 c 2.88067,0 5.25,-2.36933 5.25,-5.25 l 0,-58.5 c 0,-2.8806698 -2.36933,-5.25 -5.25,-5.25 l -58.46875,0 z" transform="matrix(0.96592582,0.25881905,-0.25881905,0.96592583,0,0)"/><rect style="color:#000;display:inline;overflow:visible;visibility:visible;opacity:.3;fill:#000;fill-opacity:1;fill-rule:nonzero;stroke:none;stroke-width:1;marker:none;enable-background:accumulate" id="rect3804" width="66.85" height="66.85" x="25.622" y="1.482" rx="4.178" ry="4.178" transform="matrix(0.96592582,0.25881905,-0.25881905,0.96592583,0,0)"/><rect style="color:#000;display:inline;overflow:visible;visibility:visible;fill:url(#linearGradient3739);fill-opacity:1;fill-rule:nonzero;stroke:none;stroke-width:1;marker:none;enable-background:accumulate" id="rect3729" width="66.85" height="66.85" x="25.363" y=".516" rx="4.178" ry="4.178" transform="matrix(0.96592582,0.25881905,-0.25881905,0.96592583,0,0)"/><path style="color:#000;display:inline;overflow:visible;visibility:visible;opacity:.1;fill:#000;fill-opacity:1;fill-rule:nonzero;stroke:none;stroke-width:1;marker:none;enable-background:accumulate" id="path3771" d="M 25.28125,21 C 22.383039,21 20,23.383039 20,26.28125 l 0,45.4375 C 20,74.616961 22.383039,77 25.28125,77 l 45.4375,0 C 73.616961,77 76,74.616961 76,71.71875 l 0,-45.4375 C 76,23.383039 73.616961,21 70.71875,21 l -45.4375,0 z"/><path style="color:#000;display:inline;overflow:visible;visibility:visible;opacity:.15;fill:#000;fill-opacity:1;fill-rule:nonzero;stroke:none;stroke-width:1;marker:none;enable-background:accumulate" id="path3766" d="m 25.28125,21.96875 c -2.369423,0 -4.3125,1.943077 -4.3125,4.3125 l 0,45.4375 c 0,2.369423 1.943077,4.3125 4.3125,4.3125 l 45.4375,0 c 2.369423,0 4.3125,-1.943077 4.3125,-4.3125 l 0,-45.4375 c 0,-2.369423 -1.943077,-4.3125 -4.3125,-4.3125 l -45.4375,0 z"/><rect style="color:#000;display:inline;overflow:visible;visibility:visible;opacity:.3;fill:#000;fill-opacity:1;fill-rule:nonzero;stroke:none;stroke-width:1;marker:none;enable-background:accumulate" id="rect3760" width="51.963" height="51.963" x="22.018" y="23.018" rx="3.248" ry="3.248"/><rect style="color:#000;display:inline;overflow:visible;visibility:visible;fill:url(#linearGradient3758);fill-opacity:1;fill-rule:nonzero;stroke:none;stroke-width:1;marker:none;enable-background:accumulate" id="rect3748" width="51.963" height="51.963" x="22.018" y="22.018" rx="3.248" ry="3.248"/><path style="color:#000;display:inline;overflow:visible;visibility:visible;opacity:.4;fill:url(#linearGradient3787);fill-opacity:1;fill-rule:nonzero;stroke:none;stroke-width:1;marker:none;enable-background:accumulate" id="rect3773" d="m 73.96875,25.28125 c 0,-1.799233 -1.450767,-3.25 -3.25,-3.25 l -45.4375,0 c -1.799233,0 -3.25,1.450767 -3.25,3.25 l 0,45.4375 c 0,1.799233 1.450767,3.25 3.25,3.25 l 45.4375,0 c 1.799233,0 3.25,-1.450767 3.25,-3.25 l 0,-45.4375 z m -0.96875,0 0,45.4375 C 73,71.998053 71.998053,73 70.71875,73 l -45.4375,0 C 24.001947,73 23,71.998053 23,70.71875 l 0,-45.4375 C 23,24.001947 24.001947,23 25.28125,23 l 45.4375,0 C 71.998053,23 73,24.001947 73,25.28125 Z"/><path style="color:#000;display:inline;overflow:visible;visibility:visible;opacity:.6;fill:url(#linearGradient3802);fill-opacity:1;fill-rule:nonzero;stroke:none;stroke-width:1;marker:none;enable-background:accumulate" id="rect3789" d="m 27.5625,8 c -1.942834,-0.1185637 -3.757055,1.1374267 -4.28125,3.09375 l -15.125,56.5 c -0.5990803,2.235798 0.7017019,4.52592 2.9375,5.125 l 56.5,15.125 c 2.235798,0.59908 4.52592,-0.701702 5.125,-2.9375 l 15.125,-56.5 c 0.59908,-2.235798 -0.701702,-4.52592 -2.9375,-5.125 l -56.5,-15.125 C 28.126775,8.081365 27.840048,8.0169377 27.5625,8 Z m -0.09375,1.03125 c 0.209906,0.014312 0.442517,0.06773 0.65625,0.125 l 56.5,15.125 c 1.709864,0.458157 2.705765,2.142812 2.25,3.84375 l -15.15625,56.5 c -0.455765,1.700938 -2.142812,2.705765 -3.84375,2.25 L 11.34375,71.71875 C 9.6428116,71.262985 8.6980934,69.584864 9.15625,67.875 l 15.125,-56.5 c 0.400887,-1.4961298 1.718159,-2.4439344 3.1875,-2.34375 z"/></g><g style="display:inline" id="layer5"><rect style="opacity:.1;fill:url(#linearGradient3613);fill-opacity:1;fill-rule:nonzero;stroke:#fff;stroke-width:.5;stroke-linecap:round;stroke-linejoin:miter;stroke-miterlimit:4;stroke-dasharray:none;stroke-dashoffset:0;stroke-opacity:1;filter:url(#filter3794)" id="rect3171" width="66" height="66" x="15" y="15" clip-path="url(#clipPath3613)" rx="12" ry="12"/></g><g id="layer4"><path style="color:#000;display:inline;overflow:visible;visibility:visible;fill:#143b69;fill-opacity:1;fill-rule:nonzero;stroke:none;stroke-width:1;marker:none;enable-background:accumulate" id="path3914" d="M 36,31.03125 A 0.95511873,0.95511873 0 0 0 35.03125,32 l 0,34 A 0.95511873,0.95511873 0 0 0 36,66.96875 l 10,0 A 0.95511873,0.95511873 0 0 0 46.96875,66 l 0,-11.03125 11.03125,0 A 0.95511873,0.95511873 0 0 0 58.96875,54 l 0,-8 A 0.95511873,0.95511873 0 0 0 58,45.03125 l -11.03125,0 0,-4.0625 15.03125,0 A 0.95511873,0.95511873 0 0 0 62.96875,40 l 0,-8 A 0.95511873,0.95511873 0 0 0 62,31.03125 l -26,0 z"/><path style="color:#000;display:inline;overflow:visible;visibility:visible;fill:#fff;fill-opacity:1;fill-rule:nonzero;stroke:none;stroke-width:1;marker:none;enable-background:accumulate" id="rect2922" d="m 36,32 0,34 10,0 0,-12 12,0 0,-8 -12,0 0,-6 16,0 0,-8 -26,0 z"/></g><g id="layer6"><path style="opacity:.5;fill:url(#linearGradient3188);fill-opacity:1;fill-rule:nonzero;stroke:none" id="rect3728" d="M 12,6 C 8.676,6 6,8.676 6,12 l 0,2 0,68 0,2 c 0,0.334721 0.04135,0.6507 0.09375,0.96875 0.0487,0.295596 0.09704,0.596915 0.1875,0.875 0.00988,0.03038 0.020892,0.0636 0.03125,0.09375 0.098865,0.287771 0.2348802,0.547452 0.375,0.8125 0.1445918,0.273507 0.3156161,0.535615 0.5,0.78125 0.1843839,0.245635 0.3737765,0.473472 0.59375,0.6875 0.439947,0.428056 0.94291,0.814526 1.5,1.09375 0.278545,0.139612 0.5734731,0.246947 0.875,0.34375 -0.2562018,-0.100222 -0.4867109,-0.236272 -0.71875,-0.375 -0.00741,-0.0044 -0.023866,0.0045 -0.03125,0 -0.031933,-0.0193 -0.062293,-0.04251 -0.09375,-0.0625 -0.120395,-0.0767 -0.2310226,-0.163513 -0.34375,-0.25 -0.1061728,-0.0808 -0.2132809,-0.161112 -0.3125,-0.25 C 8.4783201,88.557317 8.3087904,88.373362 8.15625,88.1875 8.0486711,88.057245 7.9378561,87.922215 7.84375,87.78125 7.818661,87.74287 7.805304,87.69538 7.78125,87.65625 7.716487,87.553218 7.6510225,87.451733 7.59375,87.34375 7.4927417,87.149044 7.3880752,86.928049 7.3125,86.71875 7.30454,86.69694 7.288911,86.6782 7.28125,86.65625 7.2494249,86.5643 7.2454455,86.469419 7.21875,86.375 7.1884177,86.268382 7.1483606,86.171969 7.125,86.0625 7.0521214,85.720988 7,85.364295 7,85 L 7,83 7,15 7,13 C 7,10.218152 9.2181517,8 12,8 l 2,0 68,0 2,0 c 2.781848,0 5,2.218152 5,5 l 0,2 0,68 0,2 c 0,0.364295 -0.05212,0.720988 -0.125,1.0625 -0.04415,0.206893 -0.08838,0.397658 -0.15625,0.59375 -0.0077,0.02195 -0.0233,0.04069 -0.03125,0.0625 -0.06274,0.173739 -0.138383,0.367449 -0.21875,0.53125 -0.04158,0.0828 -0.07904,0.169954 -0.125,0.25 -0.0546,0.09721 -0.126774,0.18835 -0.1875,0.28125 -0.09411,0.140965 -0.204921,0.275995 -0.3125,0.40625 -0.143174,0.17445 -0.303141,0.346998 -0.46875,0.5 -0.01117,0.0102 -0.01998,0.02115 -0.03125,0.03125 -0.138386,0.125556 -0.285091,0.234436 -0.4375,0.34375 -0.102571,0.07315 -0.204318,0.153364 -0.3125,0.21875 -0.0074,0.0045 -0.02384,-0.0044 -0.03125,0 -0.232039,0.138728 -0.462548,0.274778 -0.71875,0.375 0.301527,-0.0968 0.596455,-0.204138 0.875,-0.34375 0.55709,-0.279224 1.060053,-0.665694 1.5,-1.09375 0.219973,-0.214028 0.409366,-0.441865 0.59375,-0.6875 0.184384,-0.245635 0.355408,-0.507743 0.5,-0.78125 0.14012,-0.265048 0.276135,-0.524729 0.375,-0.8125 0.01041,-0.03078 0.02133,-0.06274 0.03125,-0.09375 0.09046,-0.278085 0.1388,-0.579404 0.1875,-0.875 C 89.95865,84.6507 90,84.334721 90,84 l 0,-2 0,-68 0,-2 C 90,8.676 87.324,6 84,6 L 12,6 Z"/><path style="opacity:.2;fill:url(#radialGradient3619);fill-opacity:1;fill-rule:nonzero;stroke:none" id="path3615" d="M 12,90 C 8.676,90 6,87.324 6,84 L 6,82 6,14 6,12 c 0,-0.334721 0.04135,-0.6507 0.09375,-0.96875 0.0487,-0.295596 0.09704,-0.596915 0.1875,-0.875 C 6.29113,10.12587 6.302142,10.09265 6.3125,10.0625 6.411365,9.774729 6.5473802,9.515048 6.6875,9.25 6.8320918,8.976493 7.0031161,8.714385 7.1875,8.46875 7.3718839,8.223115 7.5612765,7.995278 7.78125,7.78125 8.221197,7.353194 8.72416,6.966724 9.28125,6.6875 9.559795,6.547888 9.8547231,6.440553 10.15625,6.34375 9.9000482,6.443972 9.6695391,6.580022 9.4375,6.71875 c -0.00741,0.0044 -0.023866,-0.0045 -0.03125,0 -0.031933,0.0193 -0.062293,0.04251 -0.09375,0.0625 -0.120395,0.0767 -0.2310226,0.163513 -0.34375,0.25 -0.1061728,0.0808 -0.2132809,0.161112 -0.3125,0.25 C 8.4783201,7.442683 8.3087904,7.626638 8.15625,7.8125 8.0486711,7.942755 7.9378561,8.077785 7.84375,8.21875 7.818661,8.25713 7.805304,8.30462 7.78125,8.34375 7.716487,8.446782 7.6510225,8.548267 7.59375,8.65625 7.4927417,8.850956 7.3880752,9.071951 7.3125,9.28125 7.30454,9.30306 7.288911,9.3218 7.28125,9.34375 7.2494249,9.4357 7.2454455,9.530581 7.21875,9.625 7.1884177,9.731618 7.1483606,9.828031 7.125,9.9375 7.0521214,10.279012 7,10.635705 7,11 l 0,2 0,68 0,2 c 0,2.781848 2.2181517,5 5,5 l 2,0 68,0 2,0 c 2.781848,0 5,-2.218152 5,-5 l 0,-2 0,-68 0,-2 C 89,10.635705 88.94788,10.279012 88.875,9.9375 88.83085,9.730607 88.78662,9.539842 88.71875,9.34375 88.71105,9.3218 88.69545,9.30306 88.6875,9.28125 88.62476,9.107511 88.549117,8.913801 88.46875,8.75 88.42717,8.6672 88.38971,8.580046 88.34375,8.5 88.28915,8.40279 88.216976,8.31165 88.15625,8.21875 88.06214,8.077785 87.951329,7.942755 87.84375,7.8125 87.700576,7.63805 87.540609,7.465502 87.375,7.3125 87.36383,7.3023 87.35502,7.29135 87.34375,7.28125 87.205364,7.155694 87.058659,7.046814 86.90625,6.9375 86.803679,6.86435 86.701932,6.784136 86.59375,6.71875 c -0.0074,-0.0045 -0.02384,0.0044 -0.03125,0 -0.232039,-0.138728 -0.462548,-0.274778 -0.71875,-0.375 0.301527,0.0968 0.596455,0.204138 0.875,0.34375 0.55709,0.279224 1.060053,0.665694 1.5,1.09375 0.219973,0.214028 0.409366,0.441865 0.59375,0.6875 0.184384,0.245635 0.355408,0.507743 0.5,0.78125 0.14012,0.265048 0.276135,0.524729 0.375,0.8125 0.01041,0.03078 0.02133,0.06274 0.03125,0.09375 0.09046,0.278085 0.1388,0.579404 0.1875,0.875 C 89.95865,11.3493 90,11.665279 90,12 l 0,2 0,68 0,2 c 0,3.324 -2.676,6 -6,6 l -72,0 z"/></g></g></g></svg>