<svg xmlns="http://www.w3.org/2000/svg" xmlns:svg="http://www.w3.org/2000/svg" id="svg5453" width="64" height="64" version="1.1"><metadata id="metadata5458"/><g id="layer1" transform="translate(-384.57143,-483.798)"><g id="layer1-5" transform="matrix(0.27941176,0,0,0.27941176,362.64496,339.35243)"><g id="g5423" transform="translate(-0.20803944,7.0000505)"><path style="fill:#2397d4;fill-opacity:1" id="path3042-0-6-4" d="m 177.89056,597.12767 -0.01,0 c -6.6729,0 -12.10712,-5.42671 -12.11419,-12.09501 -0.01,-6.69051 5.42514,-12.12528 12.1041,-12.13236 6.68298,0 12.1162,5.42671 12.12426,12.09501 0,6.69052 -5.42512,12.1263 -12.10408,12.13337 l 0,0 z"/><path style="fill:#2397d4;fill-opacity:1" id="path3056-6-4-1" d="m 210.60812,588.24494 c -6.23094,0 -11.30246,-5.06615 -11.30657,-11.29167 -0.01,-6.24198 5.06123,-11.31635 11.2963,-11.32148 6.23916,0 11.31068,5.0651 11.31683,11.29063 0,6.24197 -5.06224,11.31635 -11.29628,11.32252 l -0.01,0 z"/><path style="fill:#2397d4;fill-opacity:1" id="path4104" d="m -10,-15.700835 a 7,7 0 1 1 -14,0 7,7 0 1 1 14,0 z" transform="matrix(1.4421651,0,0,1.4421651,215.7232,578.60266)"/><path style="fill:#2397d4;fill-opacity:1" id="path4106" d="m 94,-16.522263 a 11.5,11.5 0 1 1 -23,0 11.5,11.5 0 1 1 23,0 z" transform="matrix(0.80761247,0,0,0.80761247,140.73061,552.34319)"/><path style="fill:#2397d4;fill-opacity:1" id="path4132" d="m 11,-37.522263 a 10.5,10.5 0 1 1 -21,0 10.5,10.5 0 1 1 21,0 z" transform="matrix(0.76915473,0,0,0.76915473,187.18756,551.30398)"/></g><path style="color:#000;font-style:normal;font-variant:normal;font-weight:400;font-stretch:normal;font-size:medium;line-height:normal;font-family:Sans;-inkscape-font-specification:Sans;text-indent:0;text-align:start;text-decoration:none;text-decoration-line:none;letter-spacing:normal;word-spacing:normal;text-transform:none;direction:ltr;block-progression:tb;writing-mode:lr-tb;baseline-shift:baseline;text-anchor:start;display:inline;overflow:visible;visibility:visible;fill:#262f45;fill-opacity:1;stroke:none;stroke-width:14;marker:none;enable-background:accumulate" id="path3347-1" d="M 143.92581,615.04098 C 133.47541,628.58646 125,643.82201 125,662.2789 c 0,40.00634 30.35843,73 68,73 37.64044,0 68,-32.99349 68,-73 0,-18.46054 -8.48889,-33.21199 -19.53017,-47.2379 -4.14024,-4.34463 -10.11757,-3.69864 -14.46899,-0.91856 -12.73296,6.58855 -19.60609,9.22094 -34.00084,9.15646 -13.92202,-0.0624 -21.23667,-2.33602 -33.97033,-9.27735 -4.35142,-2.65919 -10.96363,-3.3052 -15.10386,1.03943 z M 153,626.2789 c 13.19828,7.29754 24.96911,11 40,11 15.0436,0 26.79494,-3.70251 40,-11 7.2055,10.15985 14,22.7579 14,36 0,32.80129 -24.17531,59 -54,59 -29.82612,0 -55,-26.19854 -55,-59 0,-13.22462 7.77879,-25.8322 15,-36 z"/></g></g></svg>