<svg xmlns="http://www.w3.org/2000/svg" xmlns:svg="http://www.w3.org/2000/svg" id="svg5453" width="64" height="64" version="1.1"><defs id="defs5455"><linearGradient id="b" x1="23.748" x2="23.748" y1="7.38" y2="47.234" gradientTransform="scale(1.4760695,0.6774749)" gradientUnits="userSpaceOnUse"><stop id="stop11583" offset="0" stop-color="#EFEFEE"/><stop id="stop11585" offset="1" stop-color="#84827E"/></linearGradient></defs><metadata id="metadata5458"/><g id="layer1" transform="translate(-384.57143,-483.798)"><path id="path11587" d="m 389.94848,486.798 55.62295,0 0,58 -58,0 0,-58 2.37705,0 z" style="fill:#171a21"/><g id="g11603" transform="matrix(0.88394997,0,0,0.88889235,385.58583,499.35354)"><path id="path11591" d="m 56.542,5 c -4.371,0 -7.926,3.555 -7.926,7.925 0,0.035 0,0.07 0.002,0.103 l -5.106,7.404 c -0.827,-0.036 -1.657,0.108 -2.444,0.432 -0.347,0.141 -0.672,0.315 -0.977,0.515 L 17.08,11.867 C 16.693,10.076 15.468,8.495 13.652,7.737 10.707,6.511 7.313,7.909 6.085,10.855 c -1.227,2.944 0.172,6.338 3.117,7.565 1.426,0.594 2.998,0.597 4.428,0.01 0.329,-0.136 0.639,-0.304 0.935,-0.491 l 23.062,9.534 c 0.398,1.774 1.618,3.332 3.418,4.081 2.945,1.229 6.34,-0.171 7.566,-3.113 0.318,-0.768 0.467,-1.575 0.445,-2.38 l 7.306,-5.212 c 0.06,0.002 0.12,0.003 0.18,0.003 4.371,0 7.925,-3.557 7.925,-7.927 C 64.467,8.555 60.913,5 56.542,5 M 9.711,17.199 C 7.999,16.486 6.964,14.823 6.964,13.073 c 0,-0.572 0.11,-1.151 0.344,-1.709 0.945,-2.273 3.564,-3.352 5.835,-2.406 1.072,0.446 1.871,1.264 2.325,2.241 l -2.641,-1.092 c -1.674,-0.697 -3.598,0.095 -4.297,1.77 -0.697,1.676 0.096,3.602 1.77,4.299 l 2.649,1.094 c -1.055,0.385 -2.197,0.365 -3.238,-0.071 M 47.392,27.93 c -0.949,2.272 -3.565,3.351 -5.839,2.405 -1.049,-0.437 -1.841,-1.236 -2.298,-2.189 l 2.58,1.068 c 1.677,0.698 3.601,-0.096 4.298,-1.77 0.699,-1.675 -0.094,-3.599 -1.77,-4.297 l -2.667,-1.103 c 1.029,-0.39 2.199,-0.404 3.292,0.05 1.102,0.458 1.957,1.319 2.41,2.421 0.454,1.102 0.452,2.317 -0.006,3.415 m 9.15,-9.723 c -2.911,0 -5.28,-2.37 -5.28,-5.282 0,-2.91 2.369,-5.28 5.28,-5.28 2.911,0 5.281,2.37 5.281,5.28 0,2.912 -2.37,5.282 -5.281,5.282 m 0.008,-1.324 c -2.189,0 -3.965,-1.775 -3.965,-3.966 0,-2.191 1.776,-3.968 3.965,-3.968 2.191,0 3.968,1.777 3.968,3.968 0,2.191 -1.777,3.966 -3.968,3.966" style="fill:url(#b)"/></g></g></svg>