<svg xmlns="http://www.w3.org/2000/svg" xmlns:svg="http://www.w3.org/2000/svg" xmlns:xlink="http://www.w3.org/1999/xlink" id="svg5453" width="64" height="64" version="1.1"><metadata id="metadata5458"/><g id="layer1" transform="translate(-384.57143,-483.798)"><g id="g11798" transform="matrix(0.20461153,0,0,0.20461153,416.57143,515.798)"><circle id="circle11781" cx="0" cy="0" r="141.732" style="fill:#dd4814"/><g id="U" style="fill:#fff"><circle id="circle11784" cx="-96.377" cy="0" r="18.921"/><path id="path11786" d="M -45.6059,68.395 C -62.1655,57.3316 -74.4844,40.4175 -79.6011,20.6065 -73.623,15.7354 -69.8047,8.3164 -69.8047,0 c 0,-8.3164 -3.8183,-15.7354 -9.7964,-20.6065 5.1167,-19.811 17.4356,-36.7251 33.9952,-47.7885 l 13.8344,23.1738 C -45.9824,-35.2197 -55.2754,-18.7026 -55.2754,0 c 0,18.7026 9.293,35.2197 23.5039,45.2212 z"/></g><use id="use11788" width="100%" height="100%" x="0" y="0" transform="matrix(-0.5,0.8660254,-0.8660254,-0.5,0,0)" xlink:href="#U"/><use id="use11790" width="100%" height="100%" x="0" y="0" transform="matrix(-0.5,-0.8660254,0.8660254,-0.5,0,0)" xlink:href="#U"/></g></g></svg>