<svg xmlns="http://www.w3.org/2000/svg" xmlns:svg="http://www.w3.org/2000/svg" id="svg5453" width="64" height="64" version="1.1"><defs id="defs5455"><style id="style11957" type="text/css">.fil0{fill:#0078d6}</style></defs><metadata id="metadata5458"/><g id="layer1" transform="translate(-384.57143,-483.798)"><g style="clip-rule:evenodd;fill-rule:evenodd;image-rendering:optimizeQuality;shape-rendering:geometricPrecision;text-rendering:geometricPrecision" id="g11971" transform="matrix(0.21245421,0,0,0.21167883,387.57143,486.798)"><g id="Layer_x0020_1"><metadata id="CorelCorpID_0Corel-Layer"/><g id="_26257872464"><path id="path5" d="M 125,22 C 174,14 224,7 273,0 l 0,2 0,128 c -49,0 -99,1 -148,1 0,-36 0,-73 0,-109 l 0,0 0,0 z" class="fil0" style="fill:#0078d6"/><path id="path7" d="m 0,39 c 37,-6 74,-11 112,-15 0,36 0,71 0,107 -38,0 -75,1 -112,1 l 0,-93 0,0 0,0 z" class="fil0" style="fill:#0078d6"/><path id="path29" d="m 0,143 c 37,0 74,1 112,0 0,36 0,72 0,108 C 74,246 37,241 0,236 l 0,-93 z" class="fil0" style="fill:#0078d6"/><path id="path31" d="m 125,144 c 49,0 99,0 148,0 l 0,124 0,6 c -49,-8 -99,-14 -148,-21 0,-36 0,-72 0,-109 l 0,0 z" class="fil0" style="fill:#0078d6"/></g></g></g></g></svg>